<svg width="30" height="30" viewBox="0 0 30 30" fill="none" xmlns="http://www.w3.org/2000/svg">
<path d="M23.3562 29.9584L6.69038 29.9742C3.02391 29.9775 2.38614 30.0306 0.00117243 29.9742L0.00156804 6.68084C-0.00176512 3.0194 0.00123065 2.98266 0.00136804 0.00121746H23.327C26.9935 -0.00211111 27.6147 0.000869766 30 0.0166225V29.9584C25.8138 29.9742 27.0227 29.9551 23.3562 29.9584Z" fill="url(#paint0_radial_906_1818)"/>
<path d="M15.0093 20.8131C11.7936 20.8131 9.17627 18.2002 9.17627 14.9881C9.17627 11.776 11.7936 9.16309 15.0093 9.16309C18.225 9.16309 20.8423 11.776 20.8423 14.9881C20.8423 18.2002 18.225 20.8131 15.0093 20.8131ZM15.0093 10.8274C12.7119 10.8274 10.8428 12.6939 10.8428 14.9881C10.8428 17.2823 12.7119 19.1488 15.0093 19.1488C17.3067 19.1488 19.1757 17.2823 19.1757 14.9881C19.1757 12.6939 17.3067 10.8274 15.0093 10.8274Z" fill="white"/>
<path d="M21.2587 9.99546C21.949 9.99546 22.5087 9.43661 22.5087 8.74724C22.5087 8.05787 21.949 7.49902 21.2587 7.49902C20.5684 7.49902 20.0088 8.05787 20.0088 8.74724C20.0088 9.43661 20.5684 9.99546 21.2587 9.99546Z" fill="white"/>
<path d="M20.0088 25.8066H10.0093C6.79363 25.8066 4.17627 23.1937 4.17627 19.9816V9.99591C4.17627 6.78383 6.79363 4.1709 10.0093 4.1709H20.0088C23.2244 4.1709 25.8418 6.78383 25.8418 9.99591V19.9816C25.8418 23.1937 23.2244 25.8066 20.0088 25.8066ZM10.0093 5.83519C7.71192 5.83519 5.84285 7.70169 5.84285 9.99591V19.9816C5.84285 22.2759 7.71192 24.1424 10.0093 24.1424H20.0088C22.3062 24.1424 24.1752 22.2759 24.1752 19.9816V9.99591C24.1752 7.70169 22.3062 5.83519 20.0088 5.83519H10.0093Z" fill="white"/>
<defs>
<radialGradient id="paint0_radial_906_1818" cx="0" cy="0" r="1" gradientUnits="userSpaceOnUse" gradientTransform="translate(11.1589 29.997) scale(37.4139 37.3624)">
<stop stop-color="#FFDD55"/>
<stop offset="0.328" stop-color="#FF543F"/>
<stop offset="0.348" stop-color="#FC5245"/>
<stop offset="0.504" stop-color="#E64771"/>
<stop offset="0.643" stop-color="#D53E91"/>
<stop offset="0.761" stop-color="#CC39A4"/>
<stop offset="0.841" stop-color="#C837AB"/>
</radialGradient>
</defs>
</svg>
