<svg width="30" height="30" viewBox="0 0 30 30" fill="none" xmlns="http://www.w3.org/2000/svg">
<path d="M30 0H0V30H16.035V18.3983H12.13V13.8567H16.035V10.515C16.035 6.64167 18.4033 4.53 21.86 4.53C23.025 4.52667 24 4.53 25.2 4.53V8.755H22.9667C21.0833 8.755 20.7167 9.645 20.7167 10.9583V13.85H25.2167V18.3917H20.69V30H16.035H30V0Z" fill="#1877F2"/>
<path d="M16.035 18.3983V30H20.69V18.3917H25.2167V13.85H20.7167V10.9583C20.7167 9.645 21.0833 8.755 22.9667 8.755H25.2V4.53C24 4.53 23.025 4.52667 21.86 4.53C18.4033 4.53 16.035 6.64167 16.035 10.515V13.8567H12.13V18.3983H16.035Z" fill="white"/>
</svg>
