<svg width="270" height="270" viewBox="0 0 270 270" fill="none" xmlns="http://www.w3.org/2000/svg">
<path d="M136.35 270C117.45 270 99.7313 266.4 83.1938 259.2C66.6563 252 52.2563 242.269 39.9938 230.006C27.7313 217.744 18 203.344 10.8 186.806C3.6 170.269 0 152.55 0 133.65C0 100.8 10.4625 71.8313 31.3875 46.7438C52.3125 21.6563 78.975 6.075 111.375 0C107.325 22.05 108.562 43.7062 115.087 64.9688C121.612 86.2313 132.862 104.85 148.837 120.825C164.812 136.8 183.431 148.106 204.694 154.744C225.956 161.381 247.725 162.675 270 158.625C264.15 191.025 248.625 217.687 223.425 238.612C198.225 259.537 169.2 270 136.35 270Z" fill="#F2F4F3"/>
</svg>
