<svg width="347" height="347" viewBox="0 0 347 347" fill="none" xmlns="http://www.w3.org/2000/svg">
<path d="M161.438 59.0625V0H185.062V59.0625H161.438ZM262.237 100.8L245.7 84.2625L287.438 42.1312L303.975 59.0625L262.237 100.8ZM287.438 185.062V161.438H346.5V185.062H287.438ZM161.438 346.5V287.438H185.062V346.5H161.438ZM83.8687 100.406L42.525 59.0625L59.0625 42.525L100.8 84.2625L83.8687 100.406ZM287.831 303.975L245.7 262.237L261.844 246.094L304.369 287.044L287.831 303.975ZM0 185.062V161.438H59.0625V185.062H0ZM59.4563 303.975L42.525 287.438L83.8687 246.094L92.5312 253.969L101.194 262.237L59.4563 303.975ZM173.25 267.75C147 267.75 124.687 258.562 106.312 240.188C87.9375 221.813 78.75 199.5 78.75 173.25C78.75 147 87.9375 124.687 106.312 106.312C124.687 87.9375 147 78.75 173.25 78.75C199.5 78.75 221.813 87.9375 240.188 106.312C258.562 124.687 267.75 147 267.75 173.25C267.75 199.5 258.562 221.813 240.188 240.188C221.813 258.562 199.5 267.75 173.25 267.75ZM173.25 244.125C192.938 244.125 209.672 237.234 223.453 223.453C237.234 209.672 244.125 192.938 244.125 173.25C244.125 153.562 237.234 136.828 223.453 123.047C209.672 109.266 192.938 102.375 173.25 102.375C153.562 102.375 136.828 109.266 123.047 123.047C109.266 136.828 102.375 153.562 102.375 173.25C102.375 192.938 109.266 209.672 123.047 223.453C136.828 237.234 153.562 244.125 173.25 244.125ZM173.25 244.125C153.562 244.125 136.828 237.234 123.047 223.453C109.266 209.672 102.375 192.938 102.375 173.25C102.375 153.562 109.266 136.828 123.047 123.047C136.828 109.266 153.562 102.375 173.25 102.375C192.938 102.375 209.672 109.266 223.453 123.047C237.234 136.828 244.125 153.562 244.125 173.25C244.125 192.938 237.234 209.672 223.453 223.453C209.672 237.234 192.938 244.125 173.25 244.125Z" fill="#F2F4F3"/>
</svg>
