<svg width="50" height="17" viewBox="0 0 50 17" fill="none" xmlns="http://www.w3.org/2000/svg">
<path d="M35.2394 0C35.2475 0.298623 34.1001 5.39405 33.9353 5.80231C33.8579 5.82719 33.7651 5.86418 33.669 5.88571C32.5215 6.14061 31.4521 6.59998 30.4204 7.14813C28.4296 8.20609 26.6365 9.54317 24.9833 11.0699C24.4076 11.6019 23.8534 12.1575 23.2884 12.7009C23.203 12.783 23.1142 12.861 22.9683 12.9942C22.8412 11.647 22.5681 10.4101 22.1054 9.2163C21.6393 8.01306 20.9701 6.9356 20.126 5.96507C20.3311 5.80163 22.5116 4.92325 23.0376 4.79479C23.0719 4.84389 23.123 4.93065 23.1862 5.008C23.7216 5.66308 24.0605 6.41839 24.2623 7.22951C24.4271 7.88998 24.532 8.56525 24.6665 9.24858C24.7002 9.21428 24.7553 9.17124 24.7943 9.11608C26.128 7.22413 27.6198 5.46736 29.2992 3.87336C30.637 2.60354 32.081 1.47159 33.7261 0.619442C34.133 0.408926 34.5635 0.242127 34.9852 0.0612043C35.0625 0.0282482 35.1506 0.0201773 35.2381 0L35.2394 0Z" fill="#EEC92C"/>
<path d="M14.4892 16.4944H12.4842C12.4466 15.6543 12.4096 14.8217 12.3726 13.9998C12.0854 13.9292 9.58072 13.9144 9.19937 13.9783C8.86779 14.8015 8.52949 15.6409 8.1858 16.4944H6.07324C6.11225 16.2381 10.4483 6.93978 10.7597 6.44141H13.4601C13.5792 6.71245 14.549 16.1467 14.4898 16.4944H14.4892ZM12.2697 12.4758C12.1701 11.0721 12.0733 9.70609 11.9764 8.34009C11.9549 8.33672 11.9334 8.33336 11.9119 8.33C11.2265 9.70205 10.5412 11.0741 9.84101 12.4758H12.2704H12.2697Z" fill="#CE111B"/>
<path d="M2.33518 14.9911H5.97919C5.84333 15.2749 5.73236 15.5117 5.61668 15.7458C5.50301 15.9758 5.38531 16.2038 5.26425 16.4425H0C0.651725 13.0797 1.29942 9.74167 1.95249 6.37207C4.2648 6.39292 6.55626 6.41377 8.90557 6.43462C8.61838 7.04734 8.35406 7.61028 8.08234 8.18802H3.56599C3.42946 8.9978 3.29629 9.78808 3.16043 10.5965C3.42206 10.6819 3.67764 10.6301 3.92851 10.6389C4.19687 10.6483 4.46657 10.6409 4.7356 10.6409C4.9932 10.6409 5.25147 10.6409 5.50906 10.6409C5.76397 10.6409 6.01955 10.6409 6.34104 10.6409C6.08748 11.1864 5.85948 11.6773 5.61668 12.1999H2.84499C2.67416 13.1355 2.50938 14.0354 2.33518 14.9898V14.9911Z" fill="#CE111B"/>
<path d="M15.118 14.4657C15.3951 14.545 15.6184 14.6136 15.8438 14.6735C16.2117 14.7703 16.5769 14.8847 16.9508 14.9493C17.6059 15.0616 18.1944 14.8928 18.6995 14.4515C18.9127 14.2652 19.0291 14.0285 19.0513 13.7487C19.0748 13.4501 18.9854 13.1918 18.7338 13.0129C18.2684 12.6827 17.7976 12.3592 17.3308 12.0309C17.0288 11.8184 16.712 11.6227 16.4343 11.3819C15.722 10.7638 15.4819 9.97018 15.6346 9.04942C15.7967 8.07553 16.2971 7.36327 17.2098 6.93619C17.8695 6.62748 18.5394 6.40754 19.2759 6.42369C19.5624 6.42974 19.814 6.52255 19.9962 6.73173C20.4018 7.19715 20.6681 7.75202 21.0159 8.35196C20.613 8.27327 20.2834 8.22148 19.9606 8.14346C19.4138 8.01029 18.8925 8.07351 18.3895 8.31093C18.0976 8.44814 17.8642 8.64789 17.7337 8.95526C17.5817 9.31374 17.6079 9.47651 17.9133 9.71661C18.3188 10.0347 18.7325 10.3421 19.1474 10.6481C19.481 10.8943 19.8133 11.1431 20.161 11.3685C21.0717 11.9597 21.2829 12.8253 21.1504 13.8308C20.9338 15.4759 19.592 16.2769 18.4675 16.4612C17.6557 16.5944 16.8358 16.5291 16.0186 16.4861C15.8955 16.4794 15.7718 16.478 15.6501 16.4599C15.4328 16.4276 15.2909 16.3085 15.2667 16.096C15.2082 15.5747 15.1692 15.0508 15.1167 14.465L15.118 14.4657Z" fill="#CE111B"/>
<path d="M31.9541 12.4704C31.6024 12.504 31.2513 12.5377 30.8921 12.572C30.8444 12.4516 30.8081 12.3715 30.7805 12.2888C30.57 11.6451 30.079 11.4178 29.3903 11.5967C29.0002 11.6983 28.6881 11.9397 28.4749 12.2928C28.0054 13.069 27.8091 13.901 27.9671 14.8042C27.9732 14.8372 27.9772 14.8708 27.9859 14.9031C28.111 15.3658 28.3559 15.7331 28.8509 15.8353C29.36 15.9402 29.7837 15.7398 30.0951 15.3416C30.2646 15.1244 30.3756 14.8621 30.5142 14.6173C30.7428 14.585 31.2715 14.6569 31.6777 14.7814C31.6643 14.8506 31.6609 14.9266 31.6353 14.9946C31.3132 15.8508 30.7946 16.5321 29.8954 16.8334C29.0627 17.1125 28.2583 17.0654 27.538 16.5052C27.119 16.179 26.9031 15.7243 26.8062 15.2172C26.5453 13.8573 26.7296 12.5807 27.5905 11.4562C28.3424 10.4742 29.5732 10.1581 30.6648 10.5354C31.4813 10.8172 31.864 11.4642 31.9979 12.2841C32.0012 12.3056 31.9979 12.3292 31.9938 12.3507C31.9898 12.3722 31.9797 12.3931 31.9528 12.4704H31.9541Z" fill="#EEC92C"/>
<path d="M43.5994 16.8495H42.6026C42.5959 16.7332 42.5905 16.6377 42.5845 16.5307C42.5535 16.5401 42.5233 16.5448 42.4977 16.5583C42.2737 16.68 42.0632 16.8435 41.8245 16.9195C41.1061 17.1495 40.404 16.7937 40.145 16.0848C39.9655 15.5932 39.9372 15.0867 40.0018 14.5641C40.0811 13.9245 40.2923 13.3461 40.6831 12.8376C41.0564 12.3513 41.5487 12.1119 42.1708 12.1516C42.6282 12.1805 42.9746 12.3971 43.2786 12.7979C43.3176 12.658 43.3519 12.5592 43.3727 12.4576C43.4824 11.9202 43.5879 11.3822 43.6976 10.8448C43.7191 10.7378 43.7521 10.6329 43.7843 10.5078H44.8584C44.8874 10.7923 43.7467 16.5354 43.598 16.8489L43.5994 16.8495ZM43.0115 14.2184C42.951 13.9938 42.9207 13.7564 42.8246 13.5479C42.5777 13.0111 41.9939 12.9203 41.6314 13.3824C41.1499 13.9965 40.9871 14.7134 41.1889 15.4734C41.3368 16.0303 41.9677 16.1877 42.3941 15.7969C42.5071 15.6934 42.6067 15.5615 42.6753 15.425C42.8629 15.0511 42.9766 14.6536 43.0115 14.2184Z" fill="#EEC92C"/>
<path d="M36.6454 14.9667C36.5351 15.4079 36.712 15.8101 37.051 15.985C37.431 16.1814 37.7626 16.0428 38.2818 15.457C38.5972 15.4624 38.9147 15.5444 39.2738 15.6285C39.0297 16.2405 38.6383 16.6421 38.0619 16.8546C36.8203 17.3126 35.607 16.5432 35.4563 15.1907C35.3675 14.3943 35.5498 13.6572 36.0206 12.9954C36.5324 12.2764 37.4397 12.002 38.2939 12.2044C38.8535 12.3369 39.1931 12.7263 39.3767 13.259C39.5099 13.6444 39.5281 14.4562 39.4084 14.925C39.294 14.9378 39.1662 14.964 39.0371 14.9653C38.3645 14.9694 37.6919 14.9674 37.02 14.9674C36.8983 14.9674 36.7766 14.9674 36.6461 14.9674L36.6454 14.9667ZM36.7436 14.1609C37.314 14.1757 37.8621 14.1845 38.4183 14.1596C38.4526 13.865 38.4116 13.6262 38.2966 13.407C38.15 13.1265 37.8056 12.9907 37.4956 13.0734C37.0651 13.1877 36.7598 13.6041 36.7436 14.1609Z" fill="#EEC92C"/>
<path d="M25.8517 10.8574C25.5007 12.7877 25.1637 14.6393 24.8254 16.5003H22.5723C22.5844 16.3779 22.5877 16.2602 22.6079 16.1452C22.7384 15.3966 22.8722 14.6481 23.0068 13.9002C23.0363 13.736 23.078 13.584 23.2092 13.4542C24.0217 12.6532 24.8254 11.8427 25.6332 11.037C25.6789 10.9913 25.7327 10.9543 25.8517 10.8574Z" fill="#CE111B"/>
<path d="M47.2939 13.134C47.3545 12.8287 47.4083 12.5583 47.4668 12.2657C47.6639 12.2422 47.8374 12.222 48.0412 12.1978C48.0775 12.0512 48.1078 11.8999 48.1542 11.7546C48.1865 11.6524 48.2154 11.5212 48.2914 11.4647C48.5873 11.2441 48.9001 11.047 49.2088 10.8439C49.2908 10.7901 49.3796 10.7457 49.5034 10.6758C49.5155 10.9717 49.4267 11.2125 49.3857 11.4593C49.3453 11.6981 49.2989 11.9355 49.2498 12.1998C49.3883 12.2119 49.4859 12.22 49.5834 12.2294C49.6708 12.2382 49.7576 12.2476 49.8706 12.2597C49.9378 12.5778 49.8343 12.8536 49.7448 13.1502C49.5155 13.1657 49.3063 13.1798 49.0695 13.1952C49.0359 13.3029 48.9956 13.4044 48.9734 13.51C48.8422 14.1342 48.7158 14.7597 48.588 15.3845C48.5833 15.4067 48.5779 15.4282 48.5745 15.4504C48.5012 15.8876 48.586 15.9871 49.0393 15.9918C49.0951 15.9918 49.1509 15.9918 49.2067 15.9959C49.2276 15.9972 49.2478 16.01 49.2915 16.0254C49.3063 16.3214 49.2236 16.6039 49.1328 16.8884C48.6996 17.0471 48.282 17.0188 47.873 16.8689C47.563 16.7552 47.3794 16.5178 47.3531 16.1882C47.337 15.9898 47.3478 15.784 47.3834 15.5883C47.5038 14.9278 47.643 14.2707 47.7715 13.6122C47.7943 13.4945 47.8024 13.3742 47.8212 13.2201C47.6457 13.1919 47.4977 13.1677 47.2953 13.1347L47.2939 13.134Z" fill="#EEC92C"/>
<path d="M33.1835 16.8473H32.0986C32.0986 16.7235 32.0831 16.6247 32.1006 16.5312C32.3582 15.1786 32.6192 13.8268 32.8815 12.4749C32.8936 12.411 32.9205 12.3498 32.9474 12.265C33.2911 12.1998 33.6287 12.2375 34.0094 12.2402C33.971 12.483 33.9408 12.6773 33.8977 12.9504C34.0518 12.7836 34.156 12.6652 34.2656 12.5529C34.5374 12.2758 34.8555 12.105 35.2557 12.1581C35.3821 12.1749 35.5038 12.2287 35.6754 12.2798C35.5267 12.635 35.3949 12.9484 35.2758 13.2335C35.2133 13.2591 35.1924 13.2766 35.1729 13.2752C34.53 13.2302 34.0571 13.5167 33.8312 14.1476C33.6845 14.5565 33.591 14.9856 33.4915 15.41C33.4068 15.7692 33.3489 16.135 33.2756 16.4969C33.2534 16.6052 33.2191 16.7108 33.1828 16.8466L33.1835 16.8473Z" fill="#EEC92C"/>
<path d="M45.7184 12.2763C46.0419 12.2044 46.5134 12.2111 46.7683 12.2925C46.7999 12.5541 46.058 16.4961 45.904 16.8465H44.8636C44.8279 16.5438 45.5671 12.6187 45.7184 12.2763Z" fill="#EEC92C"/>
<path d="M46.0016 10.5369C46.3654 10.4569 46.8416 10.4629 47.1302 10.549C47.1308 10.9001 47.034 11.2384 46.9432 11.5989C46.5618 11.6386 46.2013 11.6473 45.7998 11.5902C45.8724 11.2101 45.9384 10.8638 46.0009 10.5369H46.0016Z" fill="#EEC92C"/>
</svg>
