<svg width="40" height="50" viewBox="0 0 40 50" fill="none" xmlns="http://www.w3.org/2000/svg">
<path d="M4.96859 34.0938C8.28109 38.9896 13.2915 44.2917 19.9998 50C26.7082 44.2917 31.7186 38.9896 35.0311 34.0938C38.3436 29.1979 39.9998 24.6667 39.9998 20.5C39.9998 14.25 37.9894 9.27084 33.9686 5.56251C29.9477 1.85418 25.2915 9.93411e-06 19.9998 9.93411e-06C14.7082 9.93411e-06 10.0519 1.85418 6.03108 5.56251C2.01025 9.27084 -0.000165304 14.25 -0.000165304 20.5C-0.000165304 24.6667 1.65609 29.1979 4.96859 34.0938Z" fill="#CE111B"/>
<path d="M8.29125 23.8903C8.31617 23.9049 8.34473 23.9121 8.3736 23.9111C8.40246 23.9101 8.43045 23.9009 8.4543 23.8846C8.5 23.8362 8.54005 23.7828 8.57368 23.7253C8.96341 23.1552 9.35273 22.585 9.74164 22.0147L10.2917 21.2088C10.3144 21.176 10.3359 21.1422 10.3598 21.1101C10.4058 21.0478 10.465 20.9963 10.5333 20.9595C10.6015 20.9227 10.677 20.9015 10.7545 20.8973C10.7885 20.8946 10.823 20.8973 10.8573 20.896H11.9873C12.0329 20.8951 12.0785 20.897 12.1239 20.9017C12.1813 20.9075 12.2347 20.9338 12.2744 20.9757C12.307 21.0082 12.328 21.0505 12.3341 21.0961C12.3373 21.1245 12.3405 21.1528 12.3412 21.1812C12.3427 21.2327 12.3412 21.284 12.3412 21.3353V27.6014C12.3412 27.6754 12.3393 27.7494 12.3353 27.8234C12.3334 27.8519 12.3257 27.8797 12.3127 27.9052C12.2996 27.9306 12.2816 27.9531 12.2596 27.9714C12.2343 27.9945 12.204 28.0114 12.171 28.0207C12.1212 28.0332 12.0698 28.0388 12.0184 28.0372H10.7342C10.6772 28.0397 10.62 28.0342 10.5645 28.0207C10.5206 28.0077 10.4816 27.9821 10.4522 27.947C10.4229 27.9119 10.4045 27.8689 10.3995 27.8234C10.3956 27.7664 10.3963 27.7092 10.3963 27.6522V24.8279C10.3994 24.7632 10.3979 24.6983 10.3919 24.6338C10.3893 24.6247 10.3858 24.6159 10.3812 24.6076C10.3704 24.5945 10.3583 24.5829 10.3428 24.5657L10.2653 24.5603C10.2471 24.5704 10.2315 24.5778 10.2175 24.5871C10.1902 24.6079 10.1677 24.6343 10.1516 24.6646C10.0858 24.7712 10.0195 24.878 9.95254 24.9853L8.61561 27.1369C8.59095 27.1756 8.56875 27.2156 8.54162 27.2521C8.52192 27.2759 8.50057 27.2984 8.47773 27.3192C8.41713 27.3434 8.35023 27.3467 8.28755 27.3286C8.24921 27.3128 8.21641 27.286 8.19332 27.2516C8.16537 27.2085 8.13782 27.1652 8.11069 27.1216L6.6381 24.7522C6.61343 24.7134 6.59173 24.6732 6.5641 24.6367C6.54421 24.6131 6.52261 24.591 6.49947 24.5706C6.44249 24.5561 6.39883 24.5568 6.36381 24.6143C6.35804 24.644 6.35393 24.6741 6.35147 24.7043C6.34876 24.7613 6.34999 24.8185 6.34999 24.8755V27.632C6.34999 27.7003 6.34703 27.7689 6.3421 27.837C6.33703 27.8888 6.312 27.9367 6.27229 27.9704C6.24317 27.998 6.20726 28.0174 6.1682 28.0266C6.12357 28.0363 6.07795 28.0407 6.03229 28.0397H4.71337C4.68486 28.0401 4.65636 28.0387 4.62802 28.0355C4.58507 28.0323 4.54377 28.0176 4.50844 27.993C4.47312 27.9683 4.44507 27.9346 4.42724 27.8954C4.4223 27.8853 4.4186 27.8744 4.41071 27.8552C4.408 27.8234 4.40578 27.7837 4.4043 27.744V21.272C4.4043 21.2207 4.4043 21.1691 4.40701 21.118C4.41065 21.0723 4.42784 21.0286 4.4564 20.9927C4.48496 20.9568 4.52359 20.9301 4.56734 20.9163C4.60021 20.9072 4.6338 20.901 4.66774 20.8978C4.69622 20.8958 4.7248 20.8954 4.75333 20.8965H5.90057C5.96335 20.8938 6.02621 20.8994 6.08754 20.9131C6.19983 20.9388 6.29901 21.0044 6.36677 21.0976C6.39316 21.1348 6.41857 21.1716 6.44422 21.2105L8.16249 23.7265C8.19709 23.7872 8.24048 23.8424 8.29125 23.8903" fill="white"/>
<path d="M23.4819 24.2287C23.4642 24.2165 23.4427 24.2113 23.4214 24.2141C23.4001 24.2169 23.3806 24.2274 23.3667 24.2437C23.3605 24.2588 23.3563 24.2747 23.3541 24.2908C23.3516 24.3535 23.3509 24.4164 23.3509 24.479V27.6455C23.3509 27.7025 23.3509 27.7597 23.3479 27.8167C23.3443 27.8685 23.3227 27.9174 23.287 27.955C23.2568 27.9896 23.2169 28.0142 23.1725 28.0258C23.1168 28.0383 23.0596 28.0432 23.0026 28.0404H21.7185C21.6563 28.043 21.5944 28.0328 21.5364 28.0103C21.4932 27.9867 21.4575 27.9514 21.4335 27.9084C21.4095 27.8654 21.3982 27.8165 21.4008 27.7673V21.28C21.4008 21.2344 21.4007 21.1885 21.4022 21.1431C21.4015 21.0913 21.417 21.0405 21.4466 20.9979C21.4762 20.9553 21.5184 20.923 21.5672 20.9056L21.5919 20.8957C21.6166 20.894 21.6514 20.8898 21.6854 20.8898H23.156C23.2008 20.9019 23.2448 20.9164 23.288 20.9332C23.3734 20.9672 23.4471 21.0253 23.5001 21.1005C23.5248 21.1382 23.5532 21.1745 23.5795 21.212L25.9243 24.5215C25.9539 24.5632 25.9826 24.6063 26.0151 24.6448C26.0376 24.6691 26.0617 24.692 26.0871 24.7131H26.1419L26.1799 24.6719C26.1821 24.652 26.1863 24.6295 26.187 24.6071V21.1311C26.187 21.0851 26.2003 21.0401 26.2252 21.0015C26.2501 20.9629 26.2857 20.9323 26.3276 20.9135C26.3429 20.9058 26.3592 20.9004 26.3735 20.8947C26.5052 20.8854 27.7393 20.8841 27.9159 20.893C27.9616 20.9032 28.0036 20.9258 28.0374 20.9582C28.0712 20.9907 28.0954 21.0318 28.1073 21.077C28.1088 21.0936 28.1125 21.1163 28.1125 21.1389V27.7807C28.1125 27.8033 28.1093 27.826 28.1076 27.8515C28.0992 27.8704 28.0911 27.8919 28.0802 27.9116C28.0628 27.9446 28.0375 27.9728 28.0065 27.9935C27.9756 28.0143 27.94 28.0271 27.9029 28.0308C27.8519 28.0365 27.8007 28.0391 27.7494 28.0384H26.5511C26.5168 28.0384 26.4826 28.0384 26.4483 28.0369C26.3512 28.0329 26.2572 28.0017 26.1769 27.9469C26.1295 27.9155 26.0877 27.8761 26.0536 27.8305C26.023 27.789 25.9934 27.7471 25.9638 27.7054C25.1812 26.6037 24.3987 25.5011 23.6163 24.3979C23.5782 24.3363 23.5337 24.2789 23.4836 24.2267" fill="white"/>
<path d="M15.6619 19.8948C15.6097 19.9119 15.555 19.9202 15.5001 19.9195H10.6558C10.6216 19.9187 10.5875 19.9158 10.5537 19.9108C10.5026 19.903 10.4557 19.878 10.4207 19.8398C10.3858 19.8017 10.3649 19.7528 10.3616 19.7012C10.3581 19.6442 10.3586 19.5869 10.3586 19.53V13.1628C10.3537 13.0886 10.3572 13.0142 10.369 12.9408C10.383 12.901 10.4066 12.8652 10.4378 12.8367C10.4689 12.8081 10.5066 12.7877 10.5475 12.7773C10.569 12.7753 10.603 12.7723 10.6358 12.7708H15.5975C15.6256 12.7813 15.653 12.7934 15.6797 12.8071C15.7123 12.825 15.74 12.8509 15.76 12.8823C15.7801 12.9138 15.7919 12.9497 15.7944 12.9869C15.7978 13.0323 15.8003 13.0782 15.8003 13.1236V14.236C15.8011 14.2874 15.7977 14.3387 15.7902 14.3895C15.7843 14.4295 15.7671 14.467 15.7406 14.4976C15.7142 14.5282 15.6795 14.5506 15.6407 14.5621C15.6027 14.574 15.5633 14.5808 15.5235 14.5824C15.4725 14.5858 15.4209 14.5838 15.3696 14.5838H12.6832C12.6028 14.5782 12.5221 14.5835 12.4432 14.5996C12.3987 14.6194 12.3613 14.6522 12.336 14.6938C12.3106 14.7353 12.2985 14.7836 12.3013 14.8322C12.3013 14.9519 12.3013 15.072 12.3013 15.1916C12.3013 15.2087 12.3028 15.2258 12.3058 15.2427C12.3105 15.2767 12.3229 15.3092 12.342 15.3377C12.361 15.3663 12.3862 15.3902 12.4158 15.4077C12.4353 15.419 12.4565 15.4279 12.4831 15.4405C12.5463 15.4405 12.6146 15.4422 12.6829 15.4422H15.028C15.0947 15.4385 15.1616 15.4407 15.228 15.4486C15.2695 15.461 15.3072 15.4833 15.338 15.5137C15.3687 15.5442 15.3914 15.5817 15.4041 15.623C15.4059 15.6433 15.411 15.6773 15.411 15.7111V17.0288C15.411 17.0689 15.4006 17.1084 15.3809 17.1434C15.3613 17.1784 15.333 17.2078 15.2988 17.2288C15.2813 17.2394 15.2631 17.2489 15.2445 17.2574C15.1744 17.2673 15.1034 17.2702 15.0327 17.2661H12.6706C12.6079 17.2661 12.5453 17.2676 12.4979 17.268C12.4774 17.2745 12.4733 17.2759 12.4666 17.2779C12.4172 17.2939 12.3743 17.3256 12.3447 17.3682C12.3151 17.4109 12.3003 17.4621 12.3026 17.514C12.3003 17.6223 12.3011 17.7308 12.3026 17.8391C12.3 17.8877 12.3122 17.936 12.3375 17.9776C12.3629 18.0192 12.4002 18.0522 12.4446 18.0722C12.5177 18.0868 12.5923 18.0916 12.6666 18.0865H15.4404C15.4804 18.0865 15.5203 18.0865 15.56 18.0889C15.6058 18.0911 15.6503 18.1051 15.689 18.1296C15.7187 18.1472 15.7438 18.1714 15.7623 18.2005C15.7809 18.2296 15.7923 18.2626 15.7956 18.2969C15.7998 18.3423 15.8025 18.3879 15.8027 18.4333V19.5803C15.8027 19.6143 15.801 19.6486 15.7993 19.6829C15.7988 19.7202 15.7894 19.7568 15.7719 19.7897C15.7543 19.8226 15.7291 19.8507 15.6984 19.8718C15.689 19.8783 15.6794 19.8844 15.6641 19.8943" fill="white"/>
<path d="M20.6361 28.0061C20.5678 28.0306 20.4955 28.0418 20.423 28.0391H18.9682C18.9168 28.0404 18.8654 28.0391 18.8142 28.0352C18.7427 28.0295 18.6739 28.0052 18.6147 27.9646C18.5555 27.9241 18.5079 27.8687 18.4768 27.8041C18.4521 27.7587 18.4331 27.7113 18.4119 27.6644C18.3532 27.5345 18.2947 27.4045 18.2363 27.2745C18.1931 27.1736 18.1125 27.0933 18.0113 27.0507C17.9955 27.0438 17.9798 27.0377 17.9571 27.0283C17.9183 27.0268 17.8727 27.0239 17.8273 27.0239H15.9095C15.8639 27.0239 15.8182 27.0261 15.7689 27.0273C15.7349 27.0424 15.6971 27.0559 15.6626 27.0754C15.6023 27.109 15.5534 27.1598 15.522 27.2212C15.5035 27.2565 15.4877 27.2932 15.4707 27.3295C15.3982 27.4844 15.3251 27.639 15.2531 27.7944C15.2259 27.8574 15.1836 27.9125 15.1298 27.955C15.081 27.9949 15.0221 28.0205 14.9596 28.029C14.903 28.0351 14.8461 28.0382 14.7891 28.0384H13.3688C13.2818 28.0451 13.1943 28.0334 13.1121 28.0041C13.1034 27.9997 13.0952 27.9946 13.0874 27.9888C13.0488 27.9636 13.0202 27.9256 13.0067 27.8815C12.9932 27.8373 12.9956 27.7899 13.0134 27.7473C13.0329 27.6938 13.0566 27.6417 13.079 27.5895L14.6895 23.8308C15.0588 22.9665 15.4289 22.1018 15.7997 21.2368C15.8155 21.2003 15.8296 21.1628 15.8466 21.1268C15.8752 21.064 15.92 21.0099 15.9763 20.97C16.0326 20.9301 16.0985 20.9058 16.1673 20.8996C16.2013 20.8961 16.2356 20.8948 16.2699 20.8959H17.5375C17.6122 20.8974 17.685 20.9202 17.7471 20.9616C17.8093 21.0031 17.8583 21.0616 17.8882 21.13C17.9053 21.166 17.9211 21.204 17.9376 21.2395L20.6551 27.5761C20.6775 27.6284 20.6993 27.6812 20.7222 27.7335C20.7432 27.7746 20.7486 27.8219 20.7375 27.8667C20.7263 27.9174 20.6968 27.9622 20.6546 27.9925L20.6361 28.0056V28.0061ZM17.3752 25.3342C17.3905 25.3274 17.4043 25.3176 17.4157 25.3054C17.4271 25.2931 17.4358 25.2786 17.4415 25.2629C17.4471 25.2471 17.4495 25.2304 17.4484 25.2137C17.4474 25.197 17.4429 25.1807 17.4354 25.1657C17.4312 25.1551 17.4265 25.1448 17.4223 25.1341C17.2681 24.7602 17.1137 24.3863 16.9593 24.0126C16.948 23.9866 16.9352 23.9614 16.9208 23.9371C16.9143 23.928 16.9068 23.9197 16.8984 23.9124C16.8868 23.9043 16.8729 23.9001 16.8588 23.9006C16.8446 23.901 16.831 23.906 16.8199 23.9149C16.7941 23.9453 16.7746 23.9805 16.7625 24.0185L16.3185 25.0927C16.3012 25.1346 16.2884 25.1783 16.2773 25.2106C16.2768 25.2356 16.283 25.2602 16.2954 25.2819C16.3077 25.3036 16.3256 25.3216 16.3473 25.3339C16.4027 25.3466 16.4596 25.3514 16.5163 25.3483C16.8025 25.3652 17.0896 25.3608 17.3752 25.3352" fill="white"/>
<path d="M33.236 25.7524C33.2142 25.6947 33.1741 25.6457 33.1218 25.613C33.069 25.579 33.0122 25.5517 32.9526 25.5319C32.8449 25.4945 32.7339 25.4673 32.6211 25.4505C32.4408 25.4233 32.2607 25.3947 32.0824 25.3562C31.9432 25.3261 31.8024 25.3035 31.663 25.2793C31.2298 25.2054 30.8105 25.0654 30.4198 24.8641C30.2724 24.7889 30.1342 24.6967 30.0082 24.5894C29.7323 24.3556 29.5297 24.0473 29.4245 23.7014C29.381 23.5535 29.3546 23.4011 29.3459 23.2473C29.3229 22.9451 29.3534 22.6412 29.4361 22.3496C29.4804 22.196 29.5462 22.0494 29.6317 21.9143C29.8189 21.612 30.0797 21.3622 30.3897 21.1883C30.6436 21.0465 30.9184 20.9458 31.2037 20.8899C31.3271 20.8652 31.4504 20.8405 31.5737 20.8282C31.8849 20.7853 32.1999 20.7784 32.5126 20.8077C32.5409 20.8112 32.5693 20.8129 32.5979 20.8149C32.9794 20.8417 33.3545 20.9273 33.7099 21.0687C34.0967 21.2238 34.4612 21.4298 34.7937 21.6812C34.8167 21.6982 34.8386 21.7164 34.8603 21.7349C34.9084 21.7764 34.9394 21.8343 34.9474 21.8973C34.9516 21.9254 34.9499 21.9541 34.9425 21.9816C34.9324 22.0141 34.9184 22.0454 34.901 22.0746C34.8835 22.104 34.8644 22.1325 34.844 22.16L34.1946 23.0837C34.1751 23.1118 34.1556 23.1402 34.1339 23.1666C34.1096 23.1986 34.0779 23.2241 34.0415 23.241C34.005 23.2578 33.965 23.2655 33.925 23.2633C33.9023 23.2633 33.8796 23.2586 33.8527 23.2559L33.6647 23.1444C33.4594 23.0211 33.2434 22.9163 33.0195 22.8314C32.8437 22.7649 32.662 22.7153 32.4768 22.6834C32.2066 22.6354 31.9303 22.6321 31.6591 22.6738C31.5799 22.6853 31.5036 22.7121 31.4346 22.7527C31.3886 22.7765 31.3506 22.8133 31.3251 22.8584C31.2997 22.9035 31.2879 22.9551 31.2913 23.0068C31.2923 23.0269 31.2946 23.047 31.2982 23.0669C31.3208 23.1227 31.3608 23.1697 31.4122 23.2009C31.4599 23.2314 31.5093 23.2591 31.5602 23.284C31.7518 23.3723 31.9519 23.4408 32.1574 23.4885C32.3342 23.5334 32.5138 23.5645 32.6936 23.5943C32.9069 23.6314 33.1178 23.6808 33.3253 23.7423C33.4129 23.767 33.4995 23.7958 33.5863 23.8237C33.8522 23.9109 34.1031 24.0382 34.3305 24.2014C34.5959 24.3914 34.8151 24.6389 34.9718 24.9253C35.0675 25.101 35.131 25.2924 35.1595 25.4904C35.1898 25.6653 35.2016 25.8429 35.1948 26.0203C35.1878 26.26 35.1462 26.4974 35.0715 26.7252C34.9419 27.1065 34.6934 27.4361 34.3625 27.6655C34.1413 27.8176 33.8964 27.9321 33.6378 28.0042C33.4403 28.0592 33.239 28.0997 33.0355 28.1253C32.769 28.1541 32.5008 28.1653 32.2328 28.1589C32.0388 28.1588 31.8451 28.1439 31.6534 28.1142C31.0816 28.0351 30.5299 27.8487 30.0274 27.5646C29.8097 27.4397 29.6014 27.2989 29.4043 27.1433C29.373 27.1187 29.3414 27.094 29.3123 27.0669C29.2722 27.0297 29.2456 26.9802 29.2367 26.9263C29.2278 26.8724 29.237 26.817 29.263 26.7689C29.2794 26.7388 29.2975 26.7098 29.3172 26.6818C29.5412 26.3584 29.7655 26.035 29.9902 25.7117C30.0058 25.6878 30.0228 25.6648 30.041 25.6429C30.0655 25.6112 30.0972 25.5857 30.1335 25.5686C30.1698 25.5514 30.2096 25.5431 30.2496 25.5442C30.2667 25.5442 30.2837 25.5462 30.3002 25.5472C30.3598 25.5674 30.4159 25.5968 30.4665 25.6342C30.6692 25.7616 30.8798 25.8761 31.0969 25.9771C31.2938 26.0674 31.4966 26.1439 31.704 26.2063C32.0063 26.2926 32.322 26.3225 32.6351 26.2946C32.7375 26.2856 32.8382 26.2629 32.9346 26.2272C32.994 26.2068 33.0497 26.1767 33.0994 26.1382C33.1433 26.106 33.1791 26.0641 33.2041 26.0157C33.2291 25.9674 33.2426 25.9139 33.2434 25.8594C33.2434 25.82 33.2387 25.7803 33.2373 25.7529" fill="white"/>
<path d="M4.55936 12.7708C5.02802 12.7708 5.50754 12.7708 5.98681 12.7708C6.0322 12.7708 6.07783 12.7738 6.12519 12.7753C6.15634 12.7897 6.18643 12.8064 6.21523 12.8251C6.24115 12.8431 6.26261 12.8668 6.27796 12.8944C6.29331 12.922 6.30214 12.9527 6.30378 12.9842C6.30698 13.0412 6.30748 13.0984 6.30748 13.1554V17.7093C6.30748 17.7606 6.30575 17.8122 6.30896 17.8633C6.31165 17.8972 6.31777 17.9309 6.32721 17.9636C6.33411 17.9885 6.34612 18.0116 6.36247 18.0315C6.37883 18.0514 6.39916 18.0677 6.42218 18.0793C6.44191 18.0902 6.46337 18.0981 6.48976 18.1099C6.5534 18.1099 6.62173 18.1114 6.69006 18.1114H9.32691C9.39731 18.1076 9.46791 18.1103 9.53781 18.1195C9.5531 18.1272 9.57431 18.1358 9.5938 18.1474C9.62567 18.1667 9.65261 18.1932 9.67251 18.2247C9.69242 18.2562 9.70474 18.2919 9.7085 18.329C9.71247 18.363 9.71396 18.3973 9.71294 18.4316C9.71294 18.8197 9.71294 19.2077 9.71294 19.5958V19.6471C9.71563 19.6967 9.70416 19.7461 9.67988 19.7894C9.6556 19.8327 9.6195 19.8682 9.57579 19.8918C9.52933 19.9098 9.47984 19.9187 9.43002 19.918H4.65137C4.59653 19.9185 4.54197 19.9102 4.4898 19.8933C4.46499 19.875 4.44157 19.8549 4.41975 19.8331C4.38827 19.7995 4.36989 19.7558 4.36795 19.7098C4.36523 19.6577 4.36523 19.6064 4.36523 19.5541V13.169C4.36523 13.112 4.36523 13.055 4.36721 12.9978C4.3675 12.9547 4.38032 12.9126 4.40411 12.8767C4.42789 12.8408 4.46161 12.8126 4.50115 12.7955C4.51644 12.7881 4.53272 12.7827 4.55936 12.7708Z" fill="white"/>
</svg>
