<svg width="72" height="72" viewBox="0 0 72 72" fill="none" xmlns="http://www.w3.org/2000/svg">
<rect x="1" y="1" width="70" height="70" stroke="white"/>
<path d="M29.6654 34L26.6454 27H28.3954L31.0354 33.2H30.0054L32.6854 27H34.2954L31.2654 34H29.6654ZM37.0394 34.08C36.4261 34.08 35.8861 33.96 35.4194 33.72C34.9594 33.48 34.6027 33.1533 34.3494 32.74C34.0961 32.32 33.9694 31.8433 33.9694 31.31C33.9694 30.77 34.0927 30.2933 34.3394 29.88C34.5927 29.46 34.9361 29.1333 35.3694 28.9C35.8027 28.66 36.2927 28.54 36.8394 28.54C37.3661 28.54 37.8394 28.6533 38.2594 28.88C38.6861 29.1 39.0227 29.42 39.2694 29.84C39.5161 30.2533 39.6394 30.75 39.6394 31.33C39.6394 31.39 39.6361 31.46 39.6294 31.54C39.6227 31.6133 39.6161 31.6833 39.6094 31.75H35.2394V30.84H38.7894L38.1894 31.11C38.1894 30.83 38.1327 30.5867 38.0194 30.38C37.9061 30.1733 37.7494 30.0133 37.5494 29.9C37.3494 29.78 37.1161 29.72 36.8494 29.72C36.5827 29.72 36.3461 29.78 36.1394 29.9C35.9394 30.0133 35.7827 30.1767 35.6694 30.39C35.5561 30.5967 35.4994 30.8433 35.4994 31.13V31.37C35.4994 31.6633 35.5627 31.9233 35.6894 32.15C35.8227 32.37 36.0061 32.54 36.2394 32.66C36.4794 32.7733 36.7594 32.83 37.0794 32.83C37.3661 32.83 37.6161 32.7867 37.8294 32.7C38.0494 32.6133 38.2494 32.4833 38.4294 32.31L39.2594 33.21C39.0127 33.49 38.7027 33.7067 38.3294 33.86C37.9561 34.0067 37.5261 34.08 37.0394 34.08ZM40.678 34V28.62H42.168V30.14L41.958 29.7C42.118 29.32 42.3747 29.0333 42.728 28.84C43.0813 28.64 43.5113 28.54 44.018 28.54V29.98C43.9513 29.9733 43.8913 29.97 43.838 29.97C43.7847 29.9633 43.728 29.96 43.668 29.96C43.2413 29.96 42.8947 30.0833 42.628 30.33C42.368 30.57 42.238 30.9467 42.238 31.46V34H40.678ZM12.0771 46V39H15.1071C15.7337 39 16.2737 39.1033 16.7271 39.31C17.1804 39.51 17.5304 39.8 17.7771 40.18C18.0237 40.56 18.1471 41.0133 18.1471 41.54C18.1471 42.06 18.0237 42.51 17.7771 42.89C17.5304 43.27 17.1804 43.5633 16.7271 43.77C16.2737 43.97 15.7337 44.07 15.1071 44.07H12.9771L13.6971 43.34V46H12.0771ZM13.6971 43.52L12.9771 42.75H15.0171C15.5171 42.75 15.8904 42.6433 16.1371 42.43C16.3837 42.2167 16.5071 41.92 16.5071 41.54C16.5071 41.1533 16.3837 40.8533 16.1371 40.64C15.8904 40.4267 15.5171 40.32 15.0171 40.32H12.9771L13.6971 39.55V43.52ZM19.1936 46V40.62H20.6836V42.14L20.4736 41.7C20.6336 41.32 20.8903 41.0333 21.2436 40.84C21.597 40.64 22.027 40.54 22.5336 40.54V41.98C22.467 41.9733 22.407 41.97 22.3536 41.97C22.3003 41.9633 22.2436 41.96 22.1836 41.96C21.757 41.96 21.4103 42.0833 21.1436 42.33C20.8836 42.57 20.7536 42.9467 20.7536 43.46V46H19.1936ZM25.9724 46.08C25.399 46.08 24.889 45.96 24.4424 45.72C24.0024 45.48 23.6524 45.1533 23.3924 44.74C23.139 44.32 23.0124 43.8433 23.0124 43.31C23.0124 42.77 23.139 42.2933 23.3924 41.88C23.6524 41.46 24.0024 41.1333 24.4424 40.9C24.889 40.66 25.399 40.54 25.9724 40.54C26.539 40.54 27.0457 40.66 27.4924 40.9C27.939 41.1333 28.289 41.4567 28.5424 41.87C28.7957 42.2833 28.9224 42.7633 28.9224 43.31C28.9224 43.8433 28.7957 44.32 28.5424 44.74C28.289 45.1533 27.939 45.48 27.4924 45.72C27.0457 45.96 26.539 46.08 25.9724 46.08ZM25.9724 44.8C26.2324 44.8 26.4657 44.74 26.6724 44.62C26.879 44.5 27.0424 44.33 27.1624 44.11C27.2824 43.8833 27.3424 43.6167 27.3424 43.31C27.3424 42.9967 27.2824 42.73 27.1624 42.51C27.0424 42.29 26.879 42.12 26.6724 42C26.4657 41.88 26.2324 41.82 25.9724 41.82C25.7124 41.82 25.479 41.88 25.2724 42C25.0657 42.12 24.899 42.29 24.7724 42.51C24.6524 42.73 24.5924 42.9967 24.5924 43.31C24.5924 43.6167 24.6524 43.8833 24.7724 44.11C24.899 44.33 25.0657 44.5 25.2724 44.62C25.479 44.74 25.7124 44.8 25.9724 44.8ZM32.2751 46.08C31.7685 46.08 31.3118 45.9667 30.9051 45.74C30.4985 45.5067 30.1751 45.1833 29.9351 44.77C29.7018 44.3567 29.5851 43.87 29.5851 43.31C29.5851 42.7433 29.7018 42.2533 29.9351 41.84C30.1751 41.4267 30.4985 41.1067 30.9051 40.88C31.3118 40.6533 31.7685 40.54 32.2751 40.54C32.7285 40.54 33.1251 40.64 33.4651 40.84C33.8051 41.04 34.0685 41.3433 34.2551 41.75C34.4418 42.1567 34.5351 42.6767 34.5351 43.31C34.5351 43.9367 34.4451 44.4567 34.2651 44.87C34.0851 45.2767 33.8251 45.58 33.4851 45.78C33.1518 45.98 32.7485 46.08 32.2751 46.08ZM32.5451 44.8C32.7985 44.8 33.0285 44.74 33.2351 44.62C33.4418 44.5 33.6051 44.33 33.7251 44.11C33.8518 43.8833 33.9151 43.6167 33.9151 43.31C33.9151 42.9967 33.8518 42.73 33.7251 42.51C33.6051 42.29 33.4418 42.12 33.2351 42C33.0285 41.88 32.7985 41.82 32.5451 41.82C32.2851 41.82 32.0518 41.88 31.8451 42C31.6385 42.12 31.4718 42.29 31.3451 42.51C31.2251 42.73 31.1651 42.9967 31.1651 43.31C31.1651 43.6167 31.2251 43.8833 31.3451 44.11C31.4718 44.33 31.6385 44.5 31.8451 44.62C32.0518 44.74 32.2851 44.8 32.5451 44.8ZM33.9551 46V44.9L33.9851 43.3L33.8851 41.71V38.58H35.4451V46H33.9551ZM39.1589 46.08C38.7123 46.08 38.3123 45.9933 37.9589 45.82C37.6123 45.6467 37.3423 45.3833 37.1489 45.03C36.9556 44.67 36.8589 44.2133 36.8589 43.66V40.62H38.4189V43.43C38.4189 43.8767 38.5123 44.2067 38.6989 44.42C38.8923 44.6267 39.1623 44.73 39.5089 44.73C39.7489 44.73 39.9623 44.68 40.1489 44.58C40.3356 44.4733 40.4823 44.3133 40.5889 44.1C40.6956 43.88 40.7489 43.6067 40.7489 43.28V40.62H42.3089V46H40.8289V44.52L41.0989 44.95C40.9189 45.3233 40.6523 45.6067 40.2989 45.8C39.9523 45.9867 39.5723 46.08 39.1589 46.08ZM46.3542 46.08C45.7742 46.08 45.2575 45.9633 44.8042 45.73C44.3508 45.49 43.9942 45.16 43.7342 44.74C43.4808 44.32 43.3542 43.8433 43.3542 43.31C43.3542 42.77 43.4808 42.2933 43.7342 41.88C43.9942 41.46 44.3508 41.1333 44.8042 40.9C45.2575 40.66 45.7742 40.54 46.3542 40.54C46.9208 40.54 47.4142 40.66 47.8342 40.9C48.2542 41.1333 48.5642 41.47 48.7642 41.91L47.5542 42.56C47.4142 42.3067 47.2375 42.12 47.0242 42C46.8175 41.88 46.5908 41.82 46.3442 41.82C46.0775 41.82 45.8375 41.88 45.6242 42C45.4108 42.12 45.2408 42.29 45.1142 42.51C44.9942 42.73 44.9342 42.9967 44.9342 43.31C44.9342 43.6233 44.9942 43.89 45.1142 44.11C45.2408 44.33 45.4108 44.5 45.6242 44.62C45.8375 44.74 46.0775 44.8 46.3442 44.8C46.5908 44.8 46.8175 44.7433 47.0242 44.63C47.2375 44.51 47.4142 44.32 47.5542 44.06L48.7642 44.72C48.5642 45.1533 48.2542 45.49 47.8342 45.73C47.4142 45.9633 46.9208 46.08 46.3542 46.08ZM51.9405 46.08C51.3072 46.08 50.8138 45.92 50.4605 45.6C50.1072 45.2733 49.9305 44.79 49.9305 44.15V39.43H51.4905V44.13C51.4905 44.3567 51.5505 44.5333 51.6705 44.66C51.7905 44.78 51.9538 44.84 52.1605 44.84C52.4072 44.84 52.6172 44.7733 52.7905 44.64L53.2105 45.74C53.0505 45.8533 52.8572 45.94 52.6305 46C52.4105 46.0533 52.1805 46.08 51.9405 46.08ZM49.1005 41.94V40.74H52.8305V41.94H49.1005ZM56.4802 46.08C55.9069 46.08 55.3969 45.96 54.9502 45.72C54.5102 45.48 54.1602 45.1533 53.9002 44.74C53.6469 44.32 53.5202 43.8433 53.5202 43.31C53.5202 42.77 53.6469 42.2933 53.9002 41.88C54.1602 41.46 54.5102 41.1333 54.9502 40.9C55.3969 40.66 55.9069 40.54 56.4802 40.54C57.0469 40.54 57.5535 40.66 58.0002 40.9C58.4469 41.1333 58.7969 41.4567 59.0502 41.87C59.3035 42.2833 59.4302 42.7633 59.4302 43.31C59.4302 43.8433 59.3035 44.32 59.0502 44.74C58.7969 45.1533 58.4469 45.48 58.0002 45.72C57.5535 45.96 57.0469 46.08 56.4802 46.08ZM56.4802 44.8C56.7402 44.8 56.9735 44.74 57.1802 44.62C57.3869 44.5 57.5502 44.33 57.6702 44.11C57.7902 43.8833 57.8502 43.6167 57.8502 43.31C57.8502 42.9967 57.7902 42.73 57.6702 42.51C57.5502 42.29 57.3869 42.12 57.1802 42C56.9735 41.88 56.7402 41.82 56.4802 41.82C56.2202 41.82 55.9869 41.88 55.7802 42C55.5735 42.12 55.4069 42.29 55.2802 42.51C55.1602 42.73 55.1002 42.9967 55.1002 43.31C55.1002 43.6167 55.1602 43.8833 55.2802 44.11C55.4069 44.33 55.5735 44.5 55.7802 44.62C55.9869 44.74 56.2202 44.8 56.4802 44.8Z" fill="white"/>
</svg>
