<svg width="100" height="33" viewBox="0 0 100 33" fill="none" xmlns="http://www.w3.org/2000/svg">
<path d="M2.72559 10.5336C2.86015 10.1867 2.97308 9.86195 3.10924 9.54783C4.18261 7.07714 5.74623 4.97558 7.85498 3.29867C9.95582 1.62757 12.3321 0.558808 14.9918 0.171706C17.2087 -0.15088 19.4051 -0.0340086 21.5508 0.650824C24.0126 1.43666 26.1556 2.74921 27.9789 4.58795C29.5937 6.21621 30.751 8.13268 31.5742 10.2633C31.6059 10.3453 31.6228 10.4331 31.6471 10.5225C31.5969 10.5346 31.5679 10.5478 31.5383 10.5478C31.0201 10.551 30.5019 10.5478 29.9842 10.5574C29.7969 10.5605 29.6871 10.4891 29.6074 10.3183C29.3974 9.86724 29.1932 9.41192 28.9499 8.97881C27.8037 6.937 26.2496 5.2749 24.2812 4.00624C22.7498 3.01945 21.079 2.39331 19.2843 2.10404C18.4125 1.96338 17.5338 1.8941 16.6488 1.93746C13.8936 2.07231 11.4097 2.96709 9.21491 4.63713C7.26922 6.11785 5.80111 7.98726 4.82326 10.2353C4.72616 10.459 4.59634 10.5716 4.34145 10.5627C3.90503 10.5473 3.46808 10.5595 3.03113 10.5568C2.94195 10.5568 2.85329 10.5436 2.72559 10.5336Z" fill="#E30713"/>
<path d="M31.6446 21.5809C31.5085 21.9617 31.4092 22.27 31.2884 22.5703C30.6789 24.0849 29.7965 25.4313 28.7569 26.6809C27.5268 28.1595 26.0688 29.361 24.3832 30.2812C22.627 31.2405 20.7599 31.864 18.7631 32.0543C16.0084 32.3166 13.3582 31.9184 10.8531 30.7138C8.34806 29.5096 6.29367 27.7603 4.70366 25.4757C3.89889 24.3192 3.25877 23.0743 2.79702 21.7396C2.78436 21.7036 2.77697 21.666 2.75586 21.5888C3.1184 21.5761 3.46036 21.5613 3.80179 21.5529C4.00496 21.5476 4.20813 21.5582 4.4113 21.5502C4.5997 21.5434 4.6968 21.6243 4.77596 21.7998C5.46199 23.3208 6.33377 24.7232 7.47733 25.9443C9.64783 28.2605 12.298 29.6582 15.4464 30.0771C16.0675 30.1596 16.6981 30.2193 17.3235 30.213C20.4185 30.1834 23.1616 29.1569 25.5643 27.2119C27.3522 25.7645 28.6715 23.958 29.5939 21.8559C29.6899 21.637 29.824 21.5423 30.0572 21.5492C30.5612 21.5645 31.0657 21.5698 31.6436 21.5809H31.6446Z" fill="#E30713"/>
<path d="M25.3408 10.5284C25.2458 10.54 25.1878 10.5537 25.1302 10.5537C24.46 10.5559 23.7898 10.5527 23.1191 10.5574C22.8875 10.559 22.7223 10.4453 22.5534 10.3041C22.1017 9.92761 21.6595 9.53416 21.175 9.20364C20.309 8.61136 19.3359 8.28348 18.2979 8.12854C17.3744 7.99051 16.462 8.00109 15.5548 8.22267C14.4424 8.49449 13.4566 9.02014 12.5722 9.74093C12.3368 9.9329 12.1184 10.1471 11.8988 10.357C11.7769 10.4734 11.6487 10.5569 11.4719 10.5564C10.7611 10.5537 10.0502 10.5553 9.33888 10.5537C9.30035 10.5537 9.26183 10.5389 9.18848 10.5241C9.22594 10.4395 9.24653 10.3634 9.28821 10.3015C10.2175 8.91861 11.3811 7.79273 12.8793 7.04074C13.8762 6.53994 14.9321 6.24115 16.0414 6.11582C17.4288 5.95928 18.795 6.03914 20.1333 6.44369C21.9143 6.98151 23.3703 8.01272 24.5593 9.43316C24.7936 9.71291 25.0078 10.0096 25.2268 10.302C25.2717 10.3618 25.2954 10.4379 25.3397 10.5289L25.3408 10.5284Z" fill="white"/>
<path d="M25.2453 21.6144C24.6358 22.5906 23.9381 23.3992 23.0964 24.0782C21.7017 25.2035 20.1022 25.8302 18.3253 26.029C13.6165 26.5568 10.5885 24.0771 9.05127 21.6144C9.17317 21.6064 9.27819 21.5959 9.3832 21.5943C9.97161 21.5837 10.56 21.571 11.1484 21.5684C11.4086 21.5673 11.6381 21.6456 11.8355 21.8375C12.3838 22.3706 12.9785 22.8487 13.6556 23.2083C14.6435 23.7334 15.6942 24.0147 16.8177 24.084C18.9734 24.2173 20.7539 23.4198 22.2922 21.974C22.5655 21.717 22.8611 21.5763 23.2463 21.5901C23.7941 21.6101 24.3429 21.5943 24.8917 21.5959C24.982 21.5959 25.0717 21.6049 25.2453 21.6144Z" fill="white"/>
<path d="M17.1097 29.6885C16.4406 29.6996 15.8622 29.1994 15.6986 28.551C15.4675 27.6351 16.0728 26.7757 16.8865 26.6509C17.4137 26.57 17.8417 26.7488 18.1863 27.1369C18.9161 27.9582 18.5589 29.293 17.5251 29.6145C17.3921 29.6557 17.2485 29.6647 17.1097 29.6891V29.6885Z" fill="white"/>
<path d="M20.9302 26.9678C20.936 26.118 21.5777 25.4617 22.3994 25.4649C23.2073 25.468 23.8527 26.1428 23.8379 26.9963C23.8237 27.8414 23.2311 28.4993 22.373 28.4898C21.5461 28.4808 20.9244 27.8245 20.9302 26.9678Z" fill="white"/>
<path d="M10.5523 5.14996C10.5354 4.35195 11.185 3.63804 12.0225 3.64756C12.7814 3.65655 13.4664 4.23138 13.4727 5.17164C13.478 6.00507 12.8315 6.66664 12.032 6.66928C11.1924 6.67192 10.547 6.0093 10.5518 5.14943L10.5523 5.14996Z" fill="white"/>
<path d="M11.9971 25.4668C12.7491 25.4737 13.452 26.0205 13.4636 26.9755C13.4742 27.846 12.8293 28.4832 12.0103 28.4917C11.1992 28.5002 10.5622 27.8349 10.5438 26.9893C10.5285 26.2622 11.0936 25.4816 11.9971 25.4668Z" fill="white"/>
<path d="M18.7328 3.97869C18.7217 4.62862 18.4552 5.12836 17.8468 5.38009C16.9586 5.74815 16.0335 5.22831 15.8647 4.28065C15.7586 3.68678 15.9248 3.16377 16.404 2.78142C16.8531 2.42288 17.366 2.35254 17.8858 2.60638C18.4463 2.87979 18.7228 3.35097 18.7323 3.97816L18.7328 3.97869Z" fill="white"/>
<path d="M22.3923 6.66342C21.5959 6.69145 20.9094 5.99234 20.9373 5.14569C20.9711 4.11183 21.7242 3.62795 22.4202 3.6491C23.3348 3.6766 23.8767 4.40162 23.8472 5.22078C23.8171 6.05421 23.2002 6.67717 22.3928 6.66342H22.3923Z" fill="white"/>
<path d="M9.51947 23.8216C9.50047 24.5878 9.03714 25.2711 8.12472 25.2864C7.25663 25.3007 6.69883 24.5593 6.70463 23.8047C6.71097 23.023 7.33473 22.3435 8.111 22.335C8.89624 22.3266 9.52 22.994 9.51894 23.8216H9.51947Z" fill="white"/>
<path d="M26.313 25.2727C25.5526 25.306 24.9103 24.6492 24.9235 23.7909C24.9351 23.0521 25.4465 22.353 26.3315 22.3419C27.0893 22.3329 27.7468 23.0172 27.7394 23.8395C27.7331 24.5645 27.1173 25.3187 26.3125 25.2721L26.313 25.2727Z" fill="white"/>
<path d="M26.2913 9.7722C25.6016 9.83831 24.8602 9.22328 24.8707 8.3248C24.8807 7.48872 25.4776 6.86418 26.2934 6.86524C27.0729 6.86629 27.6734 7.50988 27.6898 8.32639C27.7045 9.05617 27.0787 9.83249 26.2913 9.7722Z" fill="white"/>
<path d="M9.47482 8.13213C9.47165 9.0285 9.06003 9.61655 8.43152 9.74347C7.81937 9.86669 7.25049 9.76092 6.85523 9.0634C6.50219 8.43991 6.64995 7.59432 7.21091 7.16332C7.67003 6.81059 8.17189 6.7593 8.69274 7.01313C9.2442 7.28231 9.46901 7.75296 9.47429 8.13266L9.47482 8.13213Z" fill="white"/>
<path d="M86.3662 21.1164C86.259 21.1387 86.153 21.1788 86.0464 21.1794C85.0099 21.1836 83.974 21.182 82.9376 21.1794C82.869 21.1794 82.8009 21.1609 82.6964 21.1455C82.7028 21.0281 82.6975 20.9202 82.716 20.8166C82.8558 20.0382 83.0015 19.2603 83.1434 18.4818C83.1613 18.384 83.1708 18.2846 83.1872 18.1608C83.0358 18.1883 82.9962 18.2957 82.9418 18.3829C82.4294 19.2016 81.9112 20.0165 81.4114 20.8425C81.2679 21.08 81.089 21.1847 80.8183 21.1825C79.965 21.1767 79.1117 21.1815 78.2578 21.1799C77.9217 21.1794 77.8947 21.1614 77.794 20.8219C77.566 20.053 77.3454 19.2825 77.119 18.513C77.0826 18.3898 77.0335 18.2708 76.9586 18.1497C76.7718 18.6246 76.729 19.1259 76.633 19.6151C76.5353 20.1111 76.4404 20.6072 76.3417 21.1175C76.2251 21.1413 76.1285 21.1778 76.0314 21.1778C75.0055 21.181 73.9791 21.1788 72.9532 21.1767C72.9237 21.1767 72.8941 21.1646 72.8213 21.1487C72.8181 21.054 72.797 20.9477 72.8144 20.8483C73.0857 19.2878 73.3622 17.7282 73.6366 16.1687C73.9131 14.5986 74.1891 13.0291 74.4656 11.459C74.5031 11.2469 74.549 11.2036 74.7596 11.1808C74.8197 11.1745 74.8815 11.1776 74.9422 11.1776C75.9786 11.1776 77.0145 11.1771 78.0509 11.1798C78.1813 11.1798 78.3116 11.1999 78.4784 11.2136C78.7824 12.119 79.0795 13.0233 79.3903 13.9228C79.699 14.8176 79.9692 15.7266 80.3302 16.6769C80.4742 16.4908 80.5766 16.3692 80.6679 16.2396C81.7735 14.669 82.8838 13.1015 83.9756 11.5214C84.1688 11.2422 84.393 11.1443 84.7139 11.1496C85.7292 11.1671 86.7445 11.1692 87.7604 11.1771C87.8965 11.1782 88.0322 11.1771 88.163 11.1771C88.1989 11.5092 88.1525 11.606 87.8607 11.7324C87.4691 11.9021 87.1356 12.1523 86.8712 12.477C86.2448 13.2459 85.9841 14.1121 86.2791 15.0926C86.4084 15.5225 86.6622 15.88 87.0253 16.1433C87.22 16.2845 87.258 16.4363 87.2142 16.6664C86.9509 18.0424 86.7018 19.4215 86.4469 20.7997C86.4284 20.8986 86.3973 20.9948 86.3662 21.1154V21.1164Z" fill="white"/>
<path d="M72.3137 18.7217C72.1739 19.4304 72.0356 20.1363 71.8953 20.8429C71.834 21.1506 71.7976 21.1808 71.4646 21.1813C70.5301 21.1829 69.5955 21.1813 68.6609 21.1824C66.0197 21.1839 63.3784 21.1861 60.7367 21.1882C60.6264 21.1882 60.5161 21.1882 60.3657 21.1882C60.3779 21.0258 60.3763 20.8883 60.3995 20.7545C60.6512 19.3045 60.9077 17.855 61.1615 16.4055C61.4486 14.7666 61.7341 13.1273 62.0228 11.4884C62.0365 11.4096 62.0718 11.3351 62.1067 11.2288C62.218 11.2124 62.3346 11.1806 62.4518 11.1806C66.0988 11.178 69.7459 11.1785 73.3934 11.1796C73.4816 11.1796 73.5702 11.1933 73.6974 11.2034C73.5359 12.0611 73.3919 12.8919 73.1802 13.7248H65.4007C65.3152 14.0992 65.2328 14.4588 65.1379 14.8729C65.6123 14.8967 66.0344 14.8835 66.455 14.8856C66.882 14.8877 67.3084 14.8856 67.7353 14.8856C68.1722 14.8856 68.6092 14.8856 69.0456 14.8856H71.6055C72.0309 14.8856 72.4562 14.8856 72.9322 14.8856C72.8573 15.7423 72.6626 16.5535 72.5275 17.4012C72.3929 17.4012 72.2932 17.4012 72.1939 17.4012C69.8066 17.406 67.4197 17.4113 65.0323 17.416C64.7859 17.416 64.7516 17.4346 64.6877 17.6625C64.6064 17.9539 64.5347 18.2484 64.4471 18.5885C64.5785 18.5959 64.683 18.607 64.7869 18.607C67.1543 18.608 69.5211 18.607 71.8884 18.6091C72.0245 18.6091 72.176 18.5647 72.3132 18.7212L72.3137 18.7217Z" fill="white"/>
<path d="M20.1003 11.1246C21.37 11.1246 22.6392 11.1261 23.9088 11.124C24.3627 11.1235 24.7949 11.2086 25.1981 11.4228C25.7585 11.7211 26.0524 12.3588 25.9448 12.9892C25.7648 14.04 25.6012 15.0939 25.4234 16.1452C25.2661 17.0749 25.1073 18.0046 24.9331 18.9311C24.7094 20.1236 23.9621 20.8122 22.8086 21.0914C22.7014 21.1173 22.588 21.1236 22.4772 21.1252C21.5537 21.1384 20.6301 21.1554 19.7066 21.158C18.1436 21.1628 16.581 21.1628 15.0179 21.1522C14.6654 21.1501 14.3049 21.1342 13.963 21.0586C13.1429 20.8783 12.564 20.1702 12.7345 19.2214C13.0743 17.3341 13.3925 15.4424 13.7086 13.5503C13.7867 13.0839 13.8817 12.6254 14.1757 12.2467C14.725 11.5386 15.4643 11.169 16.3541 11.1547C17.6026 11.1346 18.8517 11.1494 20.1003 11.1494C20.1003 11.1409 20.1003 11.133 20.1003 11.1246ZM18.9668 18.6307C18.9668 18.6239 18.9668 18.6175 18.9668 18.6106C19.5657 18.6106 20.1652 18.6186 20.7637 18.6075C21.104 18.6011 21.3341 18.4129 21.4423 18.0924C21.4972 17.9295 21.5283 17.7576 21.5595 17.5879C21.6703 16.9893 21.7785 16.3896 21.8829 15.7899C21.9679 15.3007 22.0629 14.8121 22.1215 14.3192C22.1632 13.9681 22.0001 13.7824 21.6534 13.7354C21.4027 13.7015 21.1489 13.6793 20.8961 13.6777C19.9816 13.6714 19.0671 13.6746 18.1525 13.6762C17.5594 13.6772 17.3203 13.8597 17.1963 14.4382C17.0945 14.9141 17.01 15.3938 16.9272 15.8734C16.8026 16.5942 16.6807 17.3155 16.5694 18.0379C16.525 18.3245 16.6053 18.4636 16.8744 18.5509C17.0438 18.6059 17.2311 18.6239 17.4111 18.627C17.9293 18.6366 18.4475 18.6302 18.9657 18.6302L18.9668 18.6307Z" fill="white"/>
<path d="M4.24255 17.9026C4.2093 18.0121 4.17131 18.1047 4.15336 18.2009C3.98872 19.0687 3.82829 19.9376 3.66364 20.8054C3.64148 20.9228 3.60296 21.037 3.56865 21.1629H0.00551763C0.00551763 21.0524 -0.00820298 20.9535 0.00762849 20.8593C0.150112 20.0291 0.296289 19.1999 0.444049 18.3707C0.62189 17.3706 0.803424 16.3717 0.981264 15.3722C1.20713 14.1035 1.43035 12.8344 1.65832 11.5662C1.67732 11.4589 1.72376 11.3568 1.76387 11.2325C1.93537 11.2146 2.09474 11.1834 2.25411 11.1834C5.01723 11.1797 7.78035 11.1744 10.5429 11.1849C10.9139 11.1865 11.2949 11.2331 11.6527 11.3288C12.5995 11.5826 12.9868 12.1807 12.8512 13.1501C12.7414 13.9333 12.6005 14.7117 12.4744 15.4922C12.4111 15.8836 12.2285 16.1966 11.8955 16.4193C11.8047 16.4801 11.7271 16.5605 11.6216 16.6504C11.6976 16.7138 11.7572 16.762 11.8158 16.8122C12.0506 17.0121 12.1641 17.2728 12.1129 17.5716C11.9235 18.6816 11.7182 19.789 11.5166 20.8969C11.5008 20.9847 11.4654 21.0687 11.4427 21.1417C11.1234 21.2295 8.13551 21.2258 7.84526 21.1333C7.9012 20.8112 7.95978 20.4844 8.01519 20.1565C8.09646 19.6758 8.1677 19.1935 8.25688 18.7144C8.35398 18.194 8.11598 17.927 7.5165 17.9037C7.12071 17.8884 6.7244 17.9021 6.32808 17.9021C5.64786 17.9021 4.96763 17.9021 4.24149 17.9021L4.24255 17.9026ZM4.91644 13.7265C4.82198 14.2432 4.73174 14.7207 4.65258 15.2003C4.64361 15.2543 4.70061 15.3193 4.72805 15.3817C5.94918 15.3817 7.14762 15.3849 8.34607 15.3796C8.66586 15.378 8.83368 15.2352 8.90597 14.9243C8.95188 14.727 8.98196 14.5256 9.01415 14.3251C9.1007 13.7841 9.01415 13.7228 8.52602 13.7238C7.52125 13.7265 6.51595 13.7027 5.51118 13.6942C5.3307 13.6926 5.15022 13.7133 4.91697 13.7265H4.91644Z" fill="white"/>
<path d="M25.6543 21.1106C26.2358 17.7827 26.8364 14.4834 27.439 11.1592C27.5546 11.1459 27.6512 11.1253 27.7477 11.1253C30.5314 11.1232 33.3151 11.119 36.0983 11.1258C36.6155 11.1269 37.1268 11.1951 37.6166 11.3871C38.3422 11.6711 38.6435 12.239 38.5258 12.9878C38.3131 14.3406 38.0583 15.6865 37.824 17.0355C37.7179 17.6458 37.6166 18.2566 37.5179 18.8679C37.3321 20.0191 36.464 20.9118 35.3242 21.1101C35.1854 21.1344 35.0408 21.1276 34.8988 21.1276C31.9325 21.1281 28.9657 21.1281 25.9994 21.1276C25.9002 21.1276 25.801 21.118 25.6543 21.1106ZM29.7705 18.5902C29.9283 18.6077 30.028 18.6289 30.1272 18.6283C31.2122 18.6236 32.2972 18.6214 33.3816 18.6014C33.5199 18.5987 33.6993 18.5331 33.7843 18.4327C33.9157 18.2772 34.0281 18.0762 34.0687 17.8779C34.2328 17.073 34.3685 16.2629 34.5099 15.4538C34.578 15.0651 34.6482 14.6759 34.6946 14.284C34.73 13.9863 34.635 13.8477 34.3505 13.761C34.1785 13.7086 33.9943 13.6737 33.8149 13.6721C32.9326 13.6653 32.0497 13.669 31.1673 13.6774C30.99 13.679 30.8132 13.7176 30.6048 13.7435C30.3246 15.3692 30.0496 16.963 29.7694 18.5908L29.7705 18.5902Z" fill="white"/>
<path d="M88.9561 16.5794C89.1851 16.4783 89.335 16.4191 89.4791 16.3483C90.3778 15.9062 90.9582 15.1859 91.1197 14.2081C91.2701 13.2985 91.0511 12.4667 90.2448 11.8892C90.172 11.8368 90.1044 11.7776 90.0052 11.6988C90.0801 11.6385 90.1329 11.5819 90.1973 11.5476C90.6706 11.2937 91.1815 11.1594 91.7145 11.1573C93.9594 11.1488 96.2048 11.1536 98.4497 11.1546C98.845 11.1546 99.2402 11.1599 99.6355 11.1668C99.6824 11.1679 99.7294 11.1932 99.8043 11.2165C99.6492 12.0156 99.4956 12.8062 99.3389 13.6121C99.1458 13.6237 98.9853 13.6407 98.8249 13.6412C97.027 13.6433 95.2285 13.6417 93.4306 13.6438C93.2686 13.6438 93.1061 13.6533 92.9451 13.6719C92.7208 13.6978 92.563 13.8173 92.5266 14.0484C92.4986 14.2282 92.4939 14.4117 92.4823 14.5936C92.4712 14.7718 92.5762 14.8527 92.7361 14.876C92.8158 14.8876 92.8981 14.8855 92.9794 14.8855C94.4929 14.8855 96.0069 14.8686 97.5204 14.8929C98.2608 14.9051 98.9706 15.0722 99.5252 15.629C99.8951 16.0003 100.059 16.4556 99.9811 16.9649C99.854 17.7967 99.7057 18.6264 99.5305 19.4493C99.3505 20.2944 98.7431 20.7423 97.969 21.0041C97.5019 21.1622 97.0185 21.1902 96.5293 21.1891C93.8069 21.1844 91.0844 21.1839 88.3619 21.1823C88.1313 21.1823 87.9007 21.1823 87.6226 21.1823C87.7434 20.343 87.9017 19.5519 88.0643 18.7169C88.2305 18.6994 88.3967 18.6672 88.5629 18.6672C90.8691 18.664 93.1752 18.6651 95.4813 18.6656C95.9858 18.6656 96.3198 18.2668 96.2296 17.783C96.1911 17.5746 96.0797 17.4535 95.8755 17.4234C95.7657 17.407 95.6533 17.4038 95.542 17.4033C94.1504 17.3996 92.7583 17.4107 91.3667 17.389C90.7783 17.38 90.1973 17.26 89.6548 17.0193C89.4284 16.9189 89.2295 16.756 88.9545 16.5809L88.9561 16.5794Z" fill="white"/>
<path d="M50.2304 21.1819H46.3195C46.1148 20.7672 46.1528 20.2982 45.9607 19.8476C45.8572 19.8318 45.7316 19.7958 45.6055 19.7953C44.7522 19.7905 43.8989 19.799 43.0461 19.7894C42.7595 19.7863 42.5659 19.8947 42.425 20.1411C42.2693 20.4145 42.0909 20.6747 41.93 20.9449C41.8392 21.0978 41.7221 21.1834 41.5379 21.1829C40.3294 21.1792 39.1204 21.1797 37.9119 21.1776C37.8829 21.1776 37.8539 21.1655 37.79 21.1512C37.8877 20.9634 37.9737 20.7831 38.0718 20.6097C39.4925 18.1099 40.9146 15.6112 42.3363 13.1125C42.6329 12.5916 42.9363 12.0744 43.2202 11.5466C43.3627 11.2827 43.558 11.1727 43.8561 11.1748C45.1564 11.1833 46.4562 11.1769 47.7565 11.1791C47.8657 11.1791 47.9744 11.2018 48.1032 11.2166C48.8103 14.5302 49.5148 17.8307 50.2299 21.1813L50.2304 21.1819ZM45.2472 17.2928C45.2446 16.8708 45.0678 16.2627 44.8878 16.0443C44.5833 16.4129 44.3337 16.801 44.1933 17.2928H45.2472Z" fill="white"/>
<path d="M52.7682 11.2462C53.0874 11.132 53.3845 11.1817 53.6753 11.1817C54.4774 11.1817 55.2796 11.197 56.0817 11.207C56.1804 11.2081 56.2785 11.2171 56.4242 11.2256C56.0252 13.6931 55.5651 16.1209 55.1656 18.5969C55.3508 18.6091 55.5091 18.6286 55.6669 18.6286C57.0891 18.627 58.5113 18.6217 59.9335 18.6186C59.962 18.6186 59.9905 18.6339 60.0163 18.6413C60.0765 18.8645 59.7994 20.8428 59.667 21.1495C59.3456 21.2299 51.2879 21.2183 51.0288 21.1236C51.6082 17.8343 52.1882 14.5381 52.7682 11.2472V11.2462Z" fill="white"/>
<path d="M86.6402 14.3052C86.6343 13.2354 87.503 12.2068 88.5505 12.0101C89.0893 11.9091 89.5837 11.9752 90.0191 12.311C90.4043 12.6082 90.6276 13.0069 90.6756 13.4998C90.8028 14.8018 89.8492 15.8208 88.8682 16.053C87.6006 16.3528 86.6032 15.4813 86.6402 14.3052Z" fill="#E30713"/>
</svg>
