<svg width="90" height="30" viewBox="0 0 90 30" fill="none" xmlns="http://www.w3.org/2000/svg">
<path d="M89.395 23.4447C89.3938 23.9381 89.0191 24.313 88.5252 24.3147C88.0287 24.3163 87.6486 23.9321 87.6519 23.4307C87.6547 22.9431 88.0412 22.5643 88.5316 22.5684C89.0216 22.5725 89.396 22.9526 89.395 23.4447ZM89.2346 23.4374C89.2333 23.0489 88.9089 22.7251 88.5224 22.7261C88.1349 22.727 87.8146 23.0499 87.813 23.4403C87.8113 23.8382 88.1359 24.1609 88.5339 24.157C88.9235 24.1532 89.2362 23.8329 89.2346 23.4374Z" fill="white"/>
<path d="M88.7655 23.4835C88.9509 23.5894 88.9144 23.7522 88.9218 23.9159H88.714C88.6775 23.8154 88.6562 23.7107 88.6021 23.6274C88.5787 23.5914 88.4879 23.599 88.4109 23.5834C88.4032 23.7059 88.3972 23.8084 88.3901 23.9198H88.1514V22.9521C88.3451 22.9617 88.5394 22.9633 88.7319 22.9841C88.8326 22.9949 88.9029 23.067 88.9262 23.1714C88.956 23.3063 88.9106 23.4107 88.7655 23.4835ZM88.4048 23.3845C88.51 23.4133 88.5989 23.4142 88.6536 23.3258C88.6727 23.2949 88.6705 23.2234 88.6475 23.1992C88.5823 23.1305 88.4969 23.1149 88.4048 23.165V23.3845Z" fill="white"/>
<path d="M64.5194 26.5112V29.4977H63.9239V27.715C63.9059 27.7089 63.8883 27.7028 63.8705 27.6971C63.6553 28.0702 63.4404 28.4429 63.2061 28.8498C62.9747 28.4474 62.7637 28.0807 62.553 27.7143C62.5406 27.7169 62.5278 27.7197 62.5153 27.7223V29.4957H61.9131V26.5143C62.1103 26.5143 62.3053 26.5061 62.4987 26.5205C62.545 26.524 62.5975 26.5967 62.6269 26.6491C62.7988 26.9516 62.9645 27.2577 63.1329 27.5621C63.1543 27.601 63.1793 27.6381 63.2174 27.6996C63.4006 27.364 63.5831 27.0547 63.7394 26.7323C63.8231 26.5594 63.9273 26.4841 64.1192 26.5083C64.2413 26.524 64.3672 26.5112 64.5194 26.5112Z" fill="white"/>
<path d="M40.2178 26.5111C40.3964 26.5111 40.5547 26.498 40.7092 26.5175C40.7714 26.5255 40.8406 26.5938 40.8799 26.6525C41.1624 27.0719 41.4383 27.4957 41.7161 27.9182C41.7663 27.9945 41.8168 28.0704 41.867 28.1464C41.882 28.1445 41.8973 28.1425 41.9124 28.1409V26.5227H42.5268V29.508C42.3666 29.508 42.2046 29.5186 42.0453 29.5017C41.9965 29.4966 41.9466 29.4228 41.9121 29.3705C41.6224 28.9323 41.3363 28.4917 41.049 28.0519C40.9956 27.9702 40.9399 27.8898 40.8853 27.8087L40.8414 27.8141V29.4966H40.2178V26.5111Z" fill="white"/>
<path d="M51.8972 29.5104C51.6488 29.5104 51.4467 29.5181 51.2463 29.505C51.1975 29.5019 51.1392 29.4383 51.1092 29.3886C50.9878 29.1859 50.8749 28.9782 50.7604 28.7717C50.6083 28.4966 50.6057 28.4946 50.2541 28.5525V29.4964H49.6274V26.5308C49.6589 26.5241 49.6895 26.5119 49.7198 26.5117C50.0945 26.5107 50.4695 26.502 50.8439 26.5145C51.2114 26.5269 51.534 26.6494 51.7025 27.0059C51.8771 27.3752 51.8704 27.7491 51.6338 28.091C51.5471 28.2161 51.4103 28.3064 51.2812 28.427C51.4717 28.7625 51.6718 29.1134 51.8972 29.5104ZM50.2669 27.0946V27.9776C50.4817 27.9652 50.6799 27.9735 50.8695 27.9375C51.0763 27.8979 51.191 27.7081 51.1779 27.4951C51.1648 27.2794 51.0487 27.1247 50.8384 27.0991C50.6534 27.0768 50.4635 27.0946 50.2669 27.0946Z" fill="white"/>
<path d="M75.4858 26.5198C75.9407 26.5198 76.3749 26.5006 76.8064 26.5252C77.2328 26.5495 77.5321 26.8092 77.628 27.1776C77.7497 27.6453 77.6132 28.0692 77.2606 28.3193C77.2236 28.3455 77.1862 28.371 77.1318 28.4088C77.3326 28.7649 77.5314 29.1172 77.7526 29.51C77.5084 29.51 77.2962 29.5164 77.0851 29.5046C77.0427 29.5023 76.9931 29.4376 76.9656 29.3904C76.8464 29.1861 76.7339 28.9781 76.619 28.7712C76.4688 28.501 76.4563 28.4948 76.1075 28.5542V29.4966H75.4864L75.4858 26.5198ZM76.1121 27.9788C76.3349 27.9661 76.533 27.9744 76.7232 27.9386C76.9362 27.8988 77.0375 27.7281 77.0289 27.497C77.0206 27.278 76.9071 27.1246 76.6936 27.0994C76.5075 27.0773 76.3169 27.0948 76.1124 27.0948L76.1121 27.9788Z" fill="white"/>
<path d="M39.7949 29.513C39.5519 29.513 39.3553 29.522 39.16 29.5073C39.105 29.5032 39.0382 29.4406 39.0056 29.3877C38.8853 29.192 38.7639 28.9954 38.6683 28.7874C38.5647 28.5624 38.4215 28.4584 38.1437 28.5631V29.5009H37.521V26.5331C37.5552 26.5251 37.5852 26.5123 37.6156 26.5123C37.9966 26.511 38.3787 26.4989 38.7591 26.5155C39.1427 26.5321 39.4797 26.6728 39.6248 27.0568C39.7712 27.4436 39.7625 27.8332 39.473 28.1673C39.393 28.2595 39.2849 28.3272 39.1753 28.4185C39.3735 28.7682 39.5721 29.1198 39.7949 29.513ZM38.1521 27.9678C38.3294 27.9678 38.48 27.9691 38.6305 27.9669C38.6693 27.9663 38.7089 27.9576 38.7467 27.9478C38.9624 27.8906 39.0708 27.7429 39.0676 27.5137C39.064 27.2807 38.9576 27.1295 38.7303 27.0995C38.5455 27.0749 38.3547 27.0944 38.1521 27.0944V27.9678Z" fill="white"/>
<path d="M60.0998 29.5465C59.495 29.5465 59.0465 29.2464 58.8502 28.6857C58.6695 28.1697 58.6814 27.6524 58.933 27.1555C59.3498 26.3322 60.5253 26.2071 61.1086 26.922C61.5556 27.4692 61.5818 28.4669 61.155 29.0285C60.8888 29.3792 60.539 29.5748 60.0998 29.5465ZM60.8337 28.0232C60.781 27.8228 60.749 27.6135 60.6697 27.4243C60.5722 27.1913 60.3782 27.0556 60.1167 27.0435C59.8616 27.0317 59.6775 27.1578 59.5436 27.3626C59.3192 27.7064 59.3357 28.3657 59.573 28.6957C59.8367 29.0624 60.3443 29.0662 60.6119 28.7024C60.7587 28.5029 60.7977 28.2725 60.8337 28.0232Z" fill="white"/>
<path d="M73.672 29.5489C73.0678 29.5479 72.5933 29.2306 72.4188 28.6553C72.2174 27.9919 72.2471 27.345 72.767 26.819C73.39 26.1887 74.4897 26.393 74.8599 27.1972C75.1009 27.7202 75.1069 28.2593 74.8726 28.782C74.6454 29.2891 74.2378 29.5527 73.672 29.5489ZM74.4136 27.9896C74.3583 27.7966 74.3318 27.5887 74.2416 27.4136C74.0149 26.9716 73.4942 26.9135 73.1838 27.2767C72.8795 27.6332 72.8933 28.4223 73.2094 28.7641C73.4769 29.053 73.9088 29.0405 74.1591 28.7373C74.3372 28.5219 74.3721 28.2647 74.4136 27.9896Z" fill="white"/>
<path d="M56.0161 29.5013V26.5264H56.6344V27.6963H57.5909V26.5289H58.2266V29.4975H57.6109V28.3075H56.6398V29.501L56.0161 29.5013Z" fill="white"/>
<path d="M52.9861 28.9339H54.2772V29.5024H52.3521V26.5303H54.2593V27.0805H52.9825V27.7076H54.1046V28.2772H52.9861V28.9339Z" fill="white"/>
<path d="M48.4903 26.5234H49.0948C49.0992 26.587 49.1073 26.6492 49.1076 26.7118C49.1086 27.2306 49.1127 27.7492 49.1056 28.2678C49.1035 28.4373 49.0897 28.6105 49.051 28.7749C48.941 29.2456 48.5632 29.5383 48.0805 29.5447C47.9622 29.5462 47.8426 29.5523 47.7256 29.5389C47.2762 29.4866 46.9482 29.1808 46.8571 28.7207C46.8267 28.5671 46.8184 28.4075 46.8168 28.2508C46.812 27.7387 46.8145 27.2265 46.8155 26.7143C46.8155 26.6568 46.8212 26.5991 46.8254 26.5266H47.4389C47.443 26.6032 47.45 26.6789 47.4504 26.7548C47.451 27.267 47.4485 27.7792 47.4517 28.2914C47.4523 28.3954 47.46 28.5027 47.4862 28.6032C47.5495 28.8473 47.7289 28.9737 47.9801 28.9677C48.2333 28.9616 48.4021 28.8262 48.4535 28.5768C48.473 28.481 48.4784 28.3811 48.4791 28.2834C48.4814 27.7713 48.4797 27.259 48.4807 26.7468C48.4807 26.6763 48.4865 26.6058 48.4903 26.5234Z" fill="white"/>
<path d="M65.2993 29.4959V26.5293H67.2148V27.0788H65.9329V27.7059H67.0518V28.2784H65.9349V28.9294H67.2261V29.4956L65.2993 29.4959Z" fill="white"/>
<path d="M78.2485 26.5205H80.1551V27.0742H78.8844V27.7014H80.0001V28.2719H78.8873V28.9306H80.1775V29.4996H78.2485V26.5205Z" fill="white"/>
<path d="M34.7259 26.5219H35.3336C35.3377 26.5971 35.3451 26.6668 35.3454 26.7366C35.3467 27.2492 35.3461 27.7616 35.348 28.2739C35.3484 28.3655 35.3518 28.4583 35.3672 28.5483C35.4113 28.8033 35.5897 28.959 35.8397 28.9693C36.0976 28.9798 36.2827 28.8489 36.3432 28.5911C36.3725 28.465 36.3786 28.3313 36.3796 28.2011C36.3834 27.6499 36.3812 27.0989 36.3812 26.5295H36.9927C36.9963 26.5988 37.0027 26.6689 37.0027 26.7389C37.003 27.2711 37.0077 27.8032 36.9985 28.3352C36.9956 28.504 36.9738 28.6775 36.9275 28.8394C36.8303 29.1799 36.6031 29.4266 36.2556 29.4939C36.0039 29.5424 35.7275 29.5501 35.4772 29.5C35.0344 29.4115 34.7563 29.0743 34.7333 28.5729C34.7025 27.8985 34.7259 27.2221 34.7259 26.5219Z" fill="white"/>
<path d="M69.7375 26.8377C69.6158 27.0063 69.509 27.1537 69.3898 27.3184C69.3073 27.2651 69.2434 27.2022 69.1673 27.1789C68.9956 27.1262 68.8195 27.0736 68.6421 27.059C68.5298 27.0497 68.4349 27.1339 68.4112 27.2631C68.3892 27.3838 68.4435 27.4709 68.5423 27.5258C68.6798 27.6021 68.8226 27.6687 68.9646 27.7371C69.0771 27.791 69.1939 27.8363 69.3044 27.8938C69.6506 28.0735 69.8108 28.3561 69.7714 28.7483C69.7354 29.1099 69.5096 29.377 69.1362 29.4951C68.6539 29.6474 67.9605 29.4581 67.667 29.0847C67.7783 28.9446 67.8918 28.802 68.018 28.6433C68.0922 28.6957 68.1594 28.7446 68.2274 28.7912C68.4237 28.9255 68.6363 29.0002 68.878 28.9616C69.0138 28.9398 69.1123 28.869 69.1392 28.7298C69.1657 28.5939 69.089 28.5014 68.9784 28.442C68.8629 28.3801 68.7396 28.3335 68.6206 28.278C68.472 28.2087 68.3195 28.1456 68.1772 28.0648C67.8525 27.8807 67.7399 27.5864 67.7844 27.2302C67.8263 26.8943 68.0149 26.6578 68.3345 26.548C68.8441 26.3731 69.3005 26.4902 69.7375 26.8377Z" fill="white"/>
<path d="M34.2649 26.5286V27.0896H32.9885V27.7366H34.1093V28.3187H32.9817V29.4997H32.3574V26.5283L34.2649 26.5286Z" fill="white"/>
<path d="M46.412 26.5273V27.0903H45.6732V29.499H45.0425V27.0919H44.3037V26.5273H46.412Z" fill="white"/>
<path d="M70.8344 27.0863H70.0957V26.5234H72.1985V27.0867H71.4588V29.5002H70.8341L70.8344 27.0863Z" fill="white"/>
<path d="M43.7864 29.5023H43.188V26.5254H43.7864V29.5023Z" fill="white"/>
<path d="M55.0667 9.80528H54.1185V8.91236C54.3206 8.84406 54.5255 8.77321 54.7317 8.70556C55.4347 8.47451 56.1338 8.22942 56.8441 8.02262C57.0813 7.9537 57.3472 7.98305 57.6282 7.96582V15.9415C57.7424 15.8324 57.8248 15.7469 57.9144 15.6693C58.2357 15.3907 58.5493 15.1015 58.8845 14.8411C59.5808 14.3006 60.3912 14.1081 61.2566 14.1506C61.6152 14.1681 61.9829 14.2134 62.3246 14.3178C63.3028 14.6159 63.8015 15.3275 63.9358 16.3149C63.9642 16.5249 63.9729 16.739 63.9732 16.9513C63.9758 18.9824 63.9748 21.0141 63.9748 23.0453V23.2955H64.937V24.2159H60.4625V23.3038H61.4183C61.4232 23.1995 61.4302 23.1213 61.4302 23.0428C61.4308 21.1602 61.4343 19.2777 61.4276 17.3951C61.4263 17.0667 61.4081 16.7339 61.3503 16.4116C61.2457 15.8311 60.935 15.5969 60.3448 15.5633C59.7605 15.5302 59.2509 15.7047 58.8095 16.0768C58.4351 16.3921 58.0707 16.7189 57.7072 17.047C57.6631 17.0869 57.6308 17.1644 57.6308 17.2247C57.627 19.1975 57.6279 21.1704 57.6285 23.1432C57.6285 23.1851 57.6349 23.2266 57.6408 23.293H58.5892V24.2127H54.1045V23.3048H55.067L55.0667 9.80528Z" fill="white"/>
<path d="M34.4533 23.3024H35.3711V24.2152H32.2715V23.2986C32.4816 23.2986 32.6935 23.2874 32.9035 23.3024C33.0601 23.3136 33.1247 23.2504 33.1774 23.1109C34.0384 20.8326 34.9043 18.5563 35.7691 16.2793C36.6172 14.0473 37.465 11.815 38.3166 9.58434C38.3348 9.53711 38.399 9.47552 38.4429 9.47457C38.8258 9.46595 39.2088 9.46946 39.6036 9.46946C39.6563 9.60796 39.7084 9.74008 39.7574 9.87381C40.6595 12.3464 41.5606 14.8196 42.4634 17.2919C43.1747 19.2399 43.8895 21.1866 44.5969 23.1361C44.6439 23.2658 44.7066 23.3075 44.8383 23.3014C45.0557 23.2916 45.2737 23.299 45.5055 23.299V24.2145H41.3375V23.2993H41.952C41.8979 23.1431 41.8547 23.0133 41.8085 22.8844C41.459 21.9135 41.1068 20.944 40.7624 19.9717C40.7177 19.8449 40.6582 19.8032 40.523 19.8035C38.9831 19.8086 37.4435 19.8076 35.9037 19.8054C35.8077 19.8054 35.7496 19.824 35.7119 19.9247C35.3014 21.0204 34.8861 22.114 34.4725 23.2086C34.4652 23.2277 34.4639 23.2497 34.4533 23.3024ZM38.323 13.1506C38.3076 13.1496 38.2923 13.1484 38.2766 13.1474C37.604 14.9161 36.9318 16.6846 36.2547 18.4647H40.2235C39.585 16.6802 38.9544 14.9154 38.323 13.1506Z" fill="white"/>
<path d="M79.7892 22.1446C79.9222 22.4468 80.0497 22.7369 80.1767 23.0254C80.1636 23.0452 80.1582 23.0631 80.1462 23.0698C79.3704 23.5037 78.6 23.9538 77.7478 24.2237C76.5761 24.5949 75.3854 24.6271 74.207 24.2732C72.7598 23.8382 71.7848 22.8722 71.2954 21.4559C70.7686 19.9317 70.7942 18.3967 71.4367 16.908C72.0901 15.3938 73.2797 14.527 74.8924 14.2337C75.7265 14.0821 76.5592 14.1032 77.3757 14.346C79.0185 14.8346 80.0178 16.1194 80.09 17.8319C80.1051 18.1861 80.0923 18.5413 80.0923 18.9134H73.6498C73.6367 18.9476 73.623 18.9664 73.623 18.9852C73.6306 19.9042 73.7655 20.7975 74.1872 21.6279C75.0478 23.3228 76.7427 23.5284 77.9364 23.0362C78.5108 22.7994 79.0598 22.5004 79.6198 22.2291C79.6716 22.2043 79.7224 22.1782 79.7892 22.1446ZM77.3907 17.7932C77.3907 17.5165 77.4022 17.2571 77.3881 16.9989C77.3642 16.5633 77.2529 16.1494 77.0241 15.7732C76.6756 15.201 76.1087 14.9744 75.4611 15.1406C75.0085 15.2569 74.6561 15.5201 74.3736 15.881C73.9624 16.4063 73.7582 17.0162 73.6623 17.6675C73.6565 17.7061 73.6649 17.747 73.6671 17.7929L77.3907 17.7932Z" fill="white"/>
<path d="M69.4005 7.96615V23.2904H70.3745V24.2114H65.8945V23.3054H66.8415V9.80752H65.9943V8.90502C66.3271 8.79492 66.6595 8.6845 66.9926 8.57504C67.5591 8.38867 68.1214 8.18858 68.6942 8.02454C68.911 7.96231 69.1521 7.98434 69.4005 7.96615Z" fill="white"/>
<path d="M80.4287 14.3896H84.9831C84.9905 14.4304 85.0001 14.4608 85.0005 14.4914C85.0017 14.7515 85.001 15.0113 85.001 15.2946H83.8751C84.5903 17.0409 85.2916 18.7537 85.9934 20.4668L86.0298 20.4709C86.6956 18.7572 87.3616 17.0435 88.037 15.3052H86.6909V14.3934H90.0001V15.301C89.8307 15.301 89.6629 15.2989 89.4951 15.3013C89.0539 15.308 89.1626 15.2343 89.0126 15.623C87.8436 18.6535 86.6797 21.6862 85.5097 24.7163C84.9851 26.0748 84.3448 27.3746 83.5034 28.5692C83.3995 28.7169 83.2851 28.8574 83.1744 29.0003C83.1622 29.0159 83.1431 29.0262 83.114 29.0494C82.6633 28.6518 82.2148 28.2561 81.7532 27.8489C81.8215 27.7991 81.8711 27.7608 81.9229 27.7257C83.0449 26.9659 83.8304 25.9337 84.3717 24.7051C84.4682 24.4862 84.5506 24.2612 84.6475 24.0426C84.6941 23.9374 84.6928 23.8445 84.6491 23.7382C84.284 22.8535 83.9228 21.9674 83.5612 21.0811C82.8439 19.3237 82.1272 17.5662 81.4098 15.8088C81.3555 15.676 81.2957 15.5452 81.2465 15.4105C81.2161 15.3265 81.1653 15.2979 81.0787 15.2997C80.8667 15.3039 80.6548 15.301 80.4294 15.301L80.4287 14.3896Z" fill="white"/>
<path d="M47.1918 23.6675V24.2107H46.1295V21.4967H47.3171C47.3171 21.5848 47.3225 21.6684 47.3161 21.7514C47.2784 22.2521 47.5067 22.6319 47.8886 22.9156C48.6965 23.5156 49.6053 23.6924 50.5823 23.4686C50.7932 23.4204 51.0036 23.3097 51.1797 23.1811C51.7338 22.7758 51.6132 21.9499 51.2449 21.5596C50.9883 21.2874 50.6769 21.0899 50.3409 20.9411C49.7281 20.6696 49.105 20.4207 48.4858 20.1624C48.0325 19.9735 47.5978 19.7521 47.1934 19.4703C46.2656 18.8244 45.913 17.92 46.0249 16.8263C46.1605 15.5013 47.0355 14.5678 48.3967 14.2637C49.1459 14.0961 49.8984 14.1031 50.6481 14.2637C51.0483 14.3496 51.4159 14.5151 51.7478 14.7567C51.789 14.7868 51.8322 14.8136 51.8978 14.8576C51.9086 14.6973 51.9179 14.5627 51.9274 14.4185H53.007C52.9555 15.2249 52.9044 16.0269 52.8526 16.839H51.7836C51.7836 16.7797 51.7801 16.7185 51.7842 16.6575C51.8095 16.2889 51.6592 15.9966 51.393 15.7547C51.1446 15.529 50.8536 15.373 50.5384 15.2676C49.9774 15.0804 49.4077 15.0092 48.8279 15.1854C48.2307 15.3666 47.9197 15.8118 47.9504 16.4297C47.9651 16.7296 48.0872 16.9712 48.3187 17.1607C48.6693 17.4476 49.0791 17.6283 49.4903 17.8045C50.048 18.0434 50.6129 18.2662 51.1695 18.5081C51.5998 18.6952 52.0087 18.9224 52.3827 19.2102C52.9795 19.6698 53.3283 20.2656 53.4025 21.0171C53.4503 21.5025 53.4385 21.985 53.3034 22.4567C53.0483 23.3468 52.4706 23.9524 51.6011 24.2413C50.4154 24.6351 49.2198 24.6092 48.0466 24.1724C47.7966 24.0792 47.5757 23.9078 47.3424 23.7709C47.2985 23.7454 47.2586 23.7142 47.1918 23.6675Z" fill="white"/>
<path d="M29.2779 29.5229C29.1845 29.5283 29.1222 29.535 29.0595 29.535C19.4488 29.5353 9.83771 29.5353 0.22697 29.535C0.00383611 29.535 0.00383611 29.5343 0.00383611 29.3148C0.00383611 24.5231 0.00447547 19.7313 0 14.9394C0 14.7654 0.0511482 14.6409 0.173584 14.519C1.1275 13.5693 2.07629 12.6148 3.02509 11.6603C4.04902 10.6301 5.07102 9.59838 6.0943 8.56759C7.23746 7.41617 8.38127 6.26507 9.52411 5.11334C10.7009 3.92777 11.8769 2.74125 13.053 1.55537C13.5325 1.07189 14.0121 0.588727 14.491 0.104609C14.6265 -0.0326171 14.6494 -0.0361276 14.7863 0.101737C15.3342 0.652553 15.8799 1.20497 16.4275 1.7561C17.0688 2.4017 17.7111 3.0457 18.352 3.6913C19.5031 4.85037 20.6533 6.01041 21.8041 7.16981C22.7559 8.12878 23.7088 9.0865 24.6598 10.0461C25.7196 11.1152 26.7767 12.1865 27.8364 13.2556C28.2481 13.6711 28.6597 14.0873 29.0793 14.4948C29.2225 14.6339 29.282 14.7788 29.2816 14.9837C29.2756 19.7438 29.2772 24.5036 29.2775 29.2638C29.2775 29.3426 29.2779 29.4211 29.2779 29.5229ZM14.6473 25.4214V25.4201C15.494 25.4201 16.3409 25.4201 17.1878 25.4201C18.7272 25.4201 20.2665 25.4201 21.8061 25.4201C22.4448 25.4201 23.0835 25.4214 23.7222 25.4198C24.0949 25.4189 24.468 25.4176 24.8404 25.4074C25.0636 25.4013 25.1301 25.3241 25.1365 25.0997C25.1374 25.0678 25.1365 25.0359 25.1365 25.004C25.1368 23.3391 25.1374 21.6745 25.1378 20.0097C25.1378 18.8981 25.1371 17.7866 25.1387 16.6747C25.1387 16.5101 25.1144 16.362 24.9882 16.2375C24.662 15.9165 24.3424 15.5887 24.0199 15.2642C23 14.2372 21.9799 13.2106 20.9605 12.183C20.3311 11.5486 19.7039 10.9119 19.0741 10.2778C18.1777 9.37595 17.28 8.47536 16.3828 7.57414C15.8988 7.08811 15.4199 6.59729 14.9299 6.11732C14.6856 5.87829 14.5795 5.88435 14.3401 6.12433C13.4373 7.02747 12.537 7.93284 11.6369 8.83885C10.7292 9.75219 9.82461 10.6681 8.91672 11.5815C8.15174 12.3508 7.3826 13.1164 6.61857 13.8868C5.87309 14.6384 5.134 15.3967 4.38596 16.1459C4.1999 16.3327 4.12286 16.542 4.1235 16.8031C4.12798 19.5262 4.12637 22.2493 4.1267 24.9724C4.1267 25.0254 4.12606 25.079 4.13309 25.1316C4.15643 25.3123 4.23955 25.3959 4.4224 25.4151C4.51223 25.4243 4.60334 25.4224 4.6938 25.4221C5.32773 25.4185 5.96164 25.41 6.59556 25.4103C7.56993 25.4105 8.5443 25.4179 9.519 25.4198C10.3233 25.4214 11.1276 25.4198 11.9319 25.4198C12.2941 25.4198 12.6566 25.4208 13.0189 25.4211C13.5617 25.4211 14.1045 25.4214 14.6473 25.4214Z" fill="#F19119"/>
</svg>
