<svg width="61" height="30" viewBox="0 0 61 30" fill="none" xmlns="http://www.w3.org/2000/svg">
<path d="M0.0620119 22.7836V16.6153C0.0620119 16.5028 0.0620119 16.3942 0.0620119 16.2817C0.0687197 16.1697 0.116988 16.0643 0.19736 15.9861C0.277732 15.9078 0.384416 15.8625 0.496507 15.8588H3.16555C3.30608 15.863 3.44364 15.9003 3.56701 15.9677C3.69038 16.0351 3.79608 16.1307 3.87548 16.2467C3.92979 16.3166 3.97635 16.3903 4.02678 16.464C5.13112 18.0882 6.23934 19.7124 7.35144 21.3365C7.40963 21.4219 7.46395 21.5033 7.52602 21.5848C7.56033 21.6281 7.60085 21.666 7.64628 21.6973C7.69188 21.729 7.74719 21.7437 7.80251 21.7387C7.85783 21.7337 7.90964 21.7095 7.94887 21.6702C8.00215 21.6125 8.05019 21.5502 8.09241 21.484L8.78683 20.4675L11.4559 16.5571C11.5179 16.464 11.58 16.3709 11.646 16.2817C11.737 16.1462 11.8609 16.036 12.0061 15.9613C12.1513 15.8867 12.313 15.8501 12.4762 15.8549H14.8775C14.9667 15.8549 15.056 15.8549 15.1452 15.8549C15.2406 15.8639 15.3304 15.9041 15.4005 15.9693C15.4707 16.0346 15.5173 16.1212 15.5331 16.2157C15.5389 16.2712 15.5389 16.3271 15.5331 16.3825C15.5331 16.4717 15.5331 16.561 15.5331 16.6502V28.9169C15.5331 29.0411 15.5331 29.1613 15.5331 29.3049C15.5316 29.366 15.5181 29.4262 15.4933 29.4822C15.4685 29.5381 15.4329 29.5885 15.3886 29.6307C15.3443 29.6728 15.2921 29.7058 15.235 29.7278C15.178 29.7498 15.1171 29.7603 15.056 29.7588H12.4063C12.3172 29.7646 12.2278 29.7646 12.1386 29.7588C12.0345 29.7421 11.9393 29.6903 11.8687 29.6119C11.7981 29.5336 11.7565 29.4334 11.7507 29.3281C11.7507 29.2195 11.7507 29.107 11.7507 28.9945V23.4741C11.7507 23.3655 11.7507 23.253 11.7507 23.1443C11.7469 23.1166 11.737 23.09 11.7219 23.0664C11.7068 23.0428 11.6868 23.0227 11.6632 23.0076C11.6396 22.9925 11.613 22.9827 11.5853 22.9788C11.5575 22.975 11.5292 22.9772 11.5024 22.9853C11.4375 23.0045 11.3804 23.0439 11.3395 23.0978L11.1766 23.3461L8.55794 27.5669L8.1506 28.2147C8.1079 28.2807 8.04737 28.3331 7.97603 28.366C7.88798 28.4016 7.79057 28.4069 7.69922 28.3809C7.60787 28.3549 7.52781 28.2991 7.4717 28.2225L7.32817 27.9975L4.44188 23.3422C4.39145 23.2568 4.33713 23.1715 4.28282 23.0862C4.24428 23.0307 4.18829 22.9897 4.12376 22.9698C4.09981 22.9628 4.07468 22.9608 4.04993 22.964C4.02519 22.9671 4.00135 22.9753 3.9799 22.9881C3.95844 23.0008 3.93983 23.0178 3.9252 23.038C3.91058 23.0582 3.90026 23.0812 3.89488 23.1055C3.89488 23.1599 3.89488 23.2142 3.89488 23.2685V28.9363C3.89488 29.0605 3.89488 29.1807 3.89488 29.3243C3.88658 29.436 3.83792 29.5409 3.75798 29.6194C3.67803 29.6979 3.57226 29.7447 3.46038 29.751H0.74479C0.667202 29.751 0.589613 29.751 0.512025 29.751C0.390922 29.746 0.27645 29.6943 0.192571 29.6068C0.108692 29.5193 0.0619084 29.4028 0.0620119 29.2816C0.0620119 29.173 0.0620119 29.0605 0.0620119 28.948V22.7836Z" fill="#CE111B"/>
<path d="M46.2273 22.8036V28.968C46.2273 29.0766 46.2273 29.1891 46.2273 29.3016C46.2206 29.4135 46.1744 29.5193 46.0969 29.6003C46.0195 29.6813 45.9159 29.7322 45.8044 29.7439C45.7606 29.7477 45.7164 29.7477 45.6725 29.7439H43.0384C42.8034 29.7462 42.5752 29.6651 42.3944 29.515C42.3181 29.4503 42.2492 29.3775 42.1888 29.2978C42.0996 29.1853 42.022 29.065 41.9367 28.9447L37.4443 22.6174C37.39 22.5437 37.3395 22.47 37.2852 22.4001C37.2567 22.3665 37.2241 22.3365 37.1882 22.3109C37.1697 22.2992 37.1487 22.2919 37.127 22.2896C37.1052 22.2872 37.0831 22.2899 37.0625 22.2974C37.0419 22.3049 37.0233 22.317 37.0081 22.3328C36.9929 22.3486 36.9816 22.3676 36.9749 22.3885C36.9708 22.4324 36.9708 22.4765 36.9749 22.5204C36.9749 22.629 36.9749 22.7415 36.9749 22.854V28.9525C36.9749 29.0611 36.9749 29.1736 36.9749 29.2822C36.9685 29.4003 36.9193 29.5119 36.8365 29.5962C36.7536 29.6805 36.6428 29.7317 36.5249 29.74H33.8093C33.7537 29.7438 33.698 29.7438 33.6424 29.74C33.5427 29.7323 33.4481 29.6927 33.3726 29.627C33.2972 29.5613 33.2449 29.4731 33.2235 29.3753C33.21 29.3207 33.2022 29.2648 33.2002 29.2085C33.2002 29.1309 33.2002 29.0534 33.2002 28.9758V16.6159C33.2002 16.5267 33.2002 16.4375 33.2002 16.3483C33.2058 16.2827 33.2175 16.2177 33.2351 16.1543C33.2564 16.0788 33.298 16.0106 33.3555 15.9572C33.413 15.9038 33.4841 15.8673 33.561 15.8517C33.67 15.8343 33.7803 15.8265 33.8907 15.8284H36.4589C36.6265 15.8263 36.7919 15.8663 36.94 15.9448C37.0702 16.0073 37.1834 16.1005 37.2697 16.2163L37.4637 16.4879L42.0298 22.9316C42.0923 23.023 42.1597 23.1111 42.2315 23.1954C42.263 23.2253 42.2999 23.2489 42.3401 23.2653C42.373 23.2732 42.4076 23.2689 42.4376 23.2532C42.4676 23.2375 42.4908 23.2115 42.503 23.1799C42.5049 23.1476 42.5049 23.1152 42.503 23.0829C42.503 22.9704 42.503 22.8618 42.503 22.7493V16.6159C42.503 16.5073 42.503 16.3948 42.503 16.2862C42.5069 16.1739 42.551 16.0668 42.6271 15.9842C42.7033 15.9016 42.8066 15.8491 42.9181 15.8362C42.9853 15.8323 43.0527 15.8323 43.1199 15.8362H45.6182C45.706 15.8283 45.7943 15.8283 45.882 15.8362C45.9824 15.8616 46.0713 15.9203 46.134 16.0028C46.1967 16.0852 46.2296 16.1865 46.2273 16.2901C46.2273 16.4026 46.2273 16.5112 46.2273 16.6237V22.8036Z" fill="#CE111B"/>
<path d="M11.665 6.97908V0.799161C11.665 0.67502 11.665 0.554758 11.665 0.411219C11.6722 0.328067 11.7036 0.248836 11.7553 0.183331C11.807 0.117826 11.8768 0.0689223 11.956 0.0426739C12.0187 0.0207025 12.0838 0.00637422 12.15 0C12.2392 0 12.3284 0 12.4176 0H21.4916C21.5808 0 21.6701 0 21.7554 0C21.8328 0.00607632 21.9088 0.0244099 21.9804 0.0543131C22.0483 0.0802212 22.1082 0.123669 22.1538 0.180232C22.1995 0.236794 22.2293 0.30445 22.2403 0.376304C22.246 0.475796 22.246 0.575528 22.2403 0.67502V2.84362C22.2403 2.93284 22.2403 3.02207 22.2403 3.10742C22.2336 3.22413 22.1831 3.33402 22.099 3.41524C22.0149 3.49646 21.9033 3.54307 21.7864 3.54579C21.6739 3.54579 21.5653 3.54579 21.4528 3.54579H16.204C16.0915 3.54579 15.9828 3.54579 15.8703 3.54579C15.7696 3.54899 15.6731 3.58712 15.5974 3.65364C15.5216 3.72017 15.4714 3.81096 15.4552 3.91046C15.4515 3.95434 15.4515 3.99847 15.4552 4.04236V4.70962C15.4536 4.78804 15.4681 4.86595 15.4979 4.9385C15.5252 5.0117 15.5731 5.07549 15.6357 5.12227C15.6983 5.16904 15.773 5.19682 15.8509 5.2023C15.9634 5.2023 16.0759 5.2023 16.1846 5.2023H20.739C20.8399 5.2023 20.9407 5.2023 21.0377 5.2023C21.1115 5.20815 21.1828 5.23164 21.2456 5.2708C21.3083 5.30996 21.3608 5.36363 21.3985 5.42731C21.4479 5.48818 21.4776 5.56257 21.4839 5.64068C21.4839 5.71827 21.4839 5.79586 21.4839 5.87344V8.1429C21.4839 8.20885 21.4839 8.27868 21.4839 8.34463C21.4786 8.45658 21.4328 8.56279 21.355 8.64345C21.2772 8.72411 21.1727 8.77372 21.061 8.78301H15.9673C15.9008 8.7851 15.8346 8.79289 15.7695 8.80628C15.6986 8.82284 15.6334 8.85771 15.5803 8.90742C15.5272 8.95712 15.4881 9.01991 15.4669 9.08948C15.4519 9.13201 15.4427 9.17639 15.4397 9.22138C15.4397 9.46191 15.4397 9.71019 15.4397 9.95072C15.4427 10.064 15.489 10.1718 15.5691 10.2519C15.6492 10.3321 15.7571 10.3784 15.8703 10.3813C15.9698 10.3872 16.0696 10.3872 16.169 10.3813H21.511C21.6196 10.3813 21.7321 10.3813 21.8408 10.3813C21.9399 10.3922 22.0324 10.4366 22.1029 10.5071C22.1735 10.5776 22.2178 10.6701 22.2287 10.7693C22.2345 10.8584 22.2345 10.9478 22.2287 11.037V13.2676C22.2287 13.3452 22.2287 13.4228 22.2287 13.5004C22.2215 13.6126 22.1739 13.7184 22.0948 13.7983C22.0156 13.8782 21.9102 13.9267 21.7981 13.9349C21.7542 13.9388 21.7101 13.9388 21.6662 13.9349H12.1228C11.9993 13.9294 11.8826 13.8767 11.7969 13.7875C11.7236 13.7164 11.6782 13.6214 11.6689 13.5198C11.6689 13.3995 11.6689 13.2754 11.6689 13.1551L11.665 6.97908Z" fill="#CE111B"/>
<path d="M54.5912 29.9997C53.6013 30.0014 52.6166 29.8549 51.67 29.5652C50.5755 29.2197 49.5565 28.6694 48.6674 27.9436L48.5665 27.8544C48.4938 27.7849 48.4449 27.6942 48.4267 27.5953C48.4086 27.4964 48.4222 27.3942 48.4656 27.3035C48.4982 27.2333 48.5385 27.1669 48.5859 27.1056C49.0204 26.4733 49.4588 25.8448 49.8933 25.2164C49.9243 25.1698 49.9592 25.1271 49.9941 25.0806C50.0787 24.977 50.1992 24.9091 50.3316 24.8905C50.4092 24.8729 50.4905 24.8839 50.5605 24.9215C50.65 24.9654 50.7368 25.0146 50.8204 25.0689C51.3858 25.4218 51.9817 25.723 52.6011 25.969C52.9776 26.116 53.3673 26.2264 53.7649 26.2987C54.2466 26.3846 54.7387 26.3951 55.2236 26.3298C55.4001 26.3039 55.5724 26.2543 55.7357 26.1823C55.847 26.1307 55.9492 26.0613 56.0383 25.9767C56.1237 25.8891 56.1856 25.7812 56.2182 25.6632C56.2508 25.5451 56.2529 25.4208 56.2245 25.3017C56.2021 25.2144 56.1499 25.1375 56.0771 25.0845C55.9817 25.0068 55.8742 24.9452 55.7589 24.9021C55.5938 24.8354 55.4222 24.786 55.2469 24.7547C55.0529 24.7198 54.8589 24.6926 54.6572 24.6538C54.1335 24.5607 53.6097 24.456 53.1054 24.3629C52.5919 24.2716 52.088 24.1326 51.6002 23.9478C51.2563 23.8188 50.9229 23.6631 50.6032 23.4823C49.865 23.0798 49.2841 22.4402 48.9544 21.6667C48.8231 21.3476 48.7357 21.0122 48.6945 20.6697C48.6259 20.0845 48.6547 19.4919 48.7799 18.9162C48.8668 18.5134 49.0259 18.1296 49.2493 17.7834C49.6153 17.2094 50.1178 16.7349 50.7118 16.4023C51.2085 16.1277 51.7452 15.9327 52.3024 15.8243C53.2306 15.6397 54.1811 15.5939 55.1227 15.6885C56.0986 15.7799 57.0473 16.0606 57.9159 16.5148C58.3796 16.7542 58.8233 17.0306 59.2427 17.3411L59.4017 17.4653C59.4976 17.5431 59.5607 17.654 59.5787 17.7761C59.5966 17.8983 59.5681 18.0227 59.4987 18.1248L59.425 18.2373L58.0827 20.146C58.0457 20.201 58.0041 20.2529 57.9586 20.3011C57.8875 20.3805 57.7916 20.4333 57.6866 20.4509C57.5815 20.4686 57.4736 20.4499 57.3805 20.3981C57.3107 20.3632 57.2486 20.3205 57.1788 20.2779C56.8282 20.0631 56.4626 19.8738 56.0848 19.7115C55.6237 19.5248 55.1418 19.3946 54.6494 19.3235C54.4619 19.2957 54.2726 19.2814 54.083 19.2808C53.8386 19.2808 53.5942 19.2808 53.3498 19.2808C53.218 19.2899 53.0878 19.3147 52.9619 19.3546C52.855 19.3861 52.755 19.4374 52.667 19.5059C52.5861 19.5665 52.5247 19.6495 52.4902 19.7446C52.4558 19.8397 52.4498 19.9428 52.4731 20.0412C52.4882 20.0933 52.5132 20.1421 52.5468 20.1848C52.6142 20.274 52.702 20.3458 52.8028 20.3942C52.9541 20.468 53.1015 20.5417 53.2567 20.6037C53.7127 20.7776 54.1843 20.9075 54.6649 20.9917L55.7124 21.1895C56.135 21.2822 56.5521 21.3988 56.9616 21.5387C57.4468 21.702 57.9066 21.9332 58.3271 22.2253C58.8485 22.5904 59.2829 23.0659 59.5996 23.618C59.8012 23.9877 59.9328 24.3915 59.9875 24.809C60.0787 25.3587 60.0787 25.9197 59.9875 26.4694C59.9126 27.0218 59.714 27.5502 59.4063 28.015C59.0986 28.4799 58.6899 28.8692 58.2107 29.154C57.7621 29.4238 57.2738 29.6215 56.7637 29.7398C56.2785 29.8628 55.7819 29.9356 55.2818 29.957L54.5912 29.9997Z" fill="#CE111B"/>
<path d="M0 6.97894V0.771865C0 0.663241 0 0.550737 0 0.438234C0.00496994 0.33468 0.0468036 0.236316 0.117947 0.160904C0.189089 0.085493 0.284852 0.0380053 0.387942 0.0270167C0.486656 0.0109396 0.586693 0.00444255 0.686657 0.00761836H2.77766C2.93284 0.00761836 3.08802 0.00761836 3.2432 0.00761836C3.33235 0.00668586 3.42078 0.0238428 3.50312 0.0580512C3.57657 0.0866768 3.64056 0.135265 3.68785 0.198331C3.73515 0.261397 3.76388 0.33643 3.7708 0.414959C3.77668 0.514444 3.77668 0.614188 3.7708 0.713673V9.63634C3.7708 9.7372 3.7708 9.83807 3.7708 9.93506C3.77687 10.0125 3.79521 10.0884 3.82511 10.1601C3.85018 10.2224 3.89216 10.2765 3.9463 10.3162C4.00045 10.356 4.06462 10.3798 4.13158 10.3851C4.24409 10.3851 4.35271 10.3851 4.46521 10.3851H9.60932C9.71019 10.3851 9.81105 10.3851 9.91192 10.3851C9.97834 10.3895 10.0437 10.4039 10.1059 10.4277C10.1746 10.4514 10.236 10.4924 10.2843 10.5468C10.3325 10.6012 10.366 10.6671 10.3813 10.7381C10.4001 10.8247 10.4092 10.9132 10.4085 11.0019V13.3024C10.4143 13.3682 10.4143 13.4344 10.4085 13.5002C10.3902 13.6023 10.339 13.6955 10.2626 13.7656C10.1862 13.8357 10.0889 13.8788 9.98563 13.8882H0.772005C0.67114 13.8882 0.570275 13.8882 0.473289 13.8882C0.407071 13.8823 0.34188 13.868 0.279318 13.8455C0.204931 13.819 0.139763 13.7716 0.0916058 13.7089C0.0434486 13.6463 0.0143395 13.5712 0.00775865 13.4925C0.00191519 13.3826 0.00191519 13.2726 0.00775865 13.1627L0 6.97894Z" fill="#CE111B"/>
<path d="M31.873 29.2318C31.8381 29.1271 31.7915 29.0262 31.7489 28.9253C29.9721 24.7873 28.1927 20.6492 26.4108 16.5112C26.3797 16.4413 26.3526 16.3676 26.3177 16.2978C26.2644 16.1683 26.1742 16.0573 26.0583 15.9787C25.9424 15.9 25.806 15.8572 25.6659 15.8556H23.0202C22.8803 15.8534 22.743 15.8928 22.6256 15.9687C22.5082 16.0447 22.416 16.1538 22.3607 16.2823C22.3091 16.3816 22.2638 16.4839 22.2249 16.5888L17.5696 27.4279C17.3485 27.9477 17.1235 28.4676 16.9023 28.9796C16.8686 29.049 16.8388 29.1203 16.8131 29.193C16.7803 29.2882 16.7859 29.3925 16.8286 29.4837C16.8713 29.575 16.9478 29.646 17.042 29.6818C17.1142 29.7099 17.1899 29.7281 17.267 29.7361C17.3342 29.74 17.4015 29.74 17.4687 29.7361H20.5024C20.6398 29.7363 20.7744 29.6973 20.8904 29.6236C21.014 29.5466 21.1135 29.4364 21.1774 29.3055L21.5033 28.6111C21.5731 28.4598 21.6391 28.3085 21.7167 28.1611C21.7749 28.0475 21.8624 27.9517 21.9702 27.8834C22.078 27.8152 22.2021 27.7771 22.3296 27.7731C22.4072 27.7731 22.4848 27.7731 22.5624 27.7731H26.2944C26.4856 27.7787 26.6679 27.8547 26.8065 27.9865C26.8962 28.0705 26.9676 28.1722 27.016 28.2852C27.1324 28.549 27.2487 28.8128 27.369 29.0611C27.4039 29.1426 27.4388 29.224 27.4815 29.3016C27.5482 29.4308 27.6488 29.5395 27.7725 29.616C27.8961 29.6926 28.0383 29.7341 28.1837 29.7361H31.4191C31.5083 29.7368 31.5962 29.7154 31.6752 29.6741C31.7534 29.6337 31.8157 29.568 31.8516 29.4876C31.8876 29.4072 31.8951 29.317 31.873 29.2318ZM24.1142 21.6669C24.1411 21.5809 24.1861 21.5015 24.2461 21.4342C24.2678 21.4175 24.2944 21.4085 24.3217 21.4085C24.3491 21.4085 24.3757 21.4175 24.3974 21.4342C24.421 21.4566 24.4406 21.4828 24.4556 21.5117C24.4866 21.5707 24.5138 21.6316 24.537 21.6941C24.8215 22.3691 25.1021 23.0441 25.3789 23.7191C25.406 23.7812 25.4293 23.8433 25.4526 23.9054C25.4623 23.9344 25.4662 23.9651 25.464 23.9956C25.4619 24.0262 25.4537 24.056 25.44 24.0834C25.4263 24.1107 25.4074 24.1352 25.3842 24.1552C25.3611 24.1753 25.3342 24.1905 25.3052 24.2002C25.2315 24.2253 25.154 24.2371 25.0763 24.2351H23.5866C23.5201 24.233 23.4539 24.2252 23.3887 24.2118C23.3556 24.2063 23.3241 24.1936 23.2964 24.1747C23.2687 24.1558 23.2453 24.1312 23.228 24.1024C23.2107 24.0737 23.1998 24.0415 23.1961 24.0082C23.1923 23.9749 23.1959 23.9411 23.2064 23.9092C23.2064 23.8472 23.2491 23.7851 23.2723 23.723" fill="#CE111B"/>
</svg>
