<svg xmlns="http://www.w3.org/2000/svg" viewBox="0 0 182.7 182.7"><defs><style>.cls-1{fill:#fff;}.cls-2{fill:#ce111b;}</style></defs><g id="Capa_2" data-name="Capa 2"><g id="Capa_1-2" data-name="Capa 1"><rect class="cls-1" width="182.7" height="182.7"/><path class="cls-2" d="M5,91.06V6.85c0-.34,0-.69,0-1a.31.31,0,0,1,.29-.27l.34,0h169l1.12,0a.3.3,0,0,1,.27.28l0,.34V175c0,.37,0,.74,0,1.11s-.14.4-.44.42h-.34c-.23,0-.46,0-.69,0H5.53a2.3,2.3,0,0,1-.26,0,.3.3,0,0,1-.22-.23c0-.11,0-.23,0-.34,0-.29,0-.58,0-.86Z"/><path class="cls-1" d="M13,111.74V95.84c0-.29,0-.57,0-.86a1.16,1.16,0,0,1,1.12-1.09H21a2.3,2.3,0,0,1,1.83,1c.14.18.26.37.39.56q4.27,6.28,8.57,12.56c.15.22.29.43.45.64a1.44,1.44,0,0,0,.31.29.61.61,0,0,0,.78-.07,3.41,3.41,0,0,0,.37-.48l1.79-2.62,6.88-10.08c.16-.24.32-.48.49-.71A2.49,2.49,0,0,1,45,93.88h6.19c.23,0,.46,0,.69,0a1.12,1.12,0,0,1,1,.93,2.09,2.09,0,0,1,0,.43c0,.23,0,.46,0,.69v31.62c0,.32,0,.63,0,1a1.2,1.2,0,0,1-1.23,1.17H44.82a5.31,5.31,0,0,1-.69,0,1.19,1.19,0,0,1-1-1.11c0-.28,0-.57,0-.86V113.52c0-.28,0-.57,0-.85a.5.5,0,0,0-.64-.41.82.82,0,0,0-.42.29l-.42.64-6.75,10.88-1.05,1.67a1.07,1.07,0,0,1-.45.39,1.1,1.1,0,0,1-1.3-.37l-.37-.58-7.44-12c-.13-.22-.27-.44-.41-.66a.78.78,0,0,0-.41-.3.47.47,0,0,0-.59.35c0,.14,0,.28,0,.42v14.61c0,.32,0,.63,0,1a1.19,1.19,0,0,1-1.12,1.1H14.76c-.2,0-.4,0-.6,0A1.21,1.21,0,0,1,13,128.49c0-.28,0-.57,0-.86Z"/><path class="cls-1" d="M132,111.79v15.89c0,.28,0,.57,0,.86a1.22,1.22,0,0,1-1.09,1.14,1.94,1.94,0,0,1-.34,0h-6.79a2.56,2.56,0,0,1-1.66-.59,3.52,3.52,0,0,1-.53-.56c-.23-.29-.43-.6-.65-.91l-11.58-16.31c-.14-.19-.27-.38-.41-.56a1.37,1.37,0,0,0-.25-.23.37.37,0,0,0-.55.2,1.86,1.86,0,0,0,0,.34c0,.28,0,.57,0,.86v15.72c0,.28,0,.57,0,.85a1.25,1.25,0,0,1-1.16,1.18h-7a3.17,3.17,0,0,1-.43,0,1.2,1.2,0,0,1-1.08-.94,2.12,2.12,0,0,1-.06-.43c0-.2,0-.4,0-.6V95.84c0-.23,0-.46,0-.69a2.75,2.75,0,0,1,.09-.5,1.1,1.1,0,0,1,.84-.78,4.86,4.86,0,0,1,.85-.06h6.62a2.58,2.58,0,0,1,1.24.3,2.3,2.3,0,0,1,.85.7l.5.7,11.77,16.61a8.17,8.17,0,0,0,.52.68.9.9,0,0,0,.28.18.36.36,0,0,0,.42-.22,2.13,2.13,0,0,0,0-.25c0-.29,0-.57,0-.86V95.84c0-.28,0-.57,0-.85a1.21,1.21,0,0,1,1.07-1.16,4.53,4.53,0,0,1,.52,0h6.44a3.82,3.82,0,0,1,.68,0A1.18,1.18,0,0,1,132,95c0,.29,0,.57,0,.86Z"/><path class="cls-1" d="M42.91,71V55.07c0-.32,0-.63,0-1a1.1,1.1,0,0,1,.75-.95,2.13,2.13,0,0,1,.5-.11c.23,0,.46,0,.69,0H68.24c.23,0,.46,0,.68,0a1.89,1.89,0,0,1,.58.14,1.06,1.06,0,0,1,.67.83,6.78,6.78,0,0,1,0,.77v5.59c0,.23,0,.46,0,.68A1.2,1.2,0,0,1,69,62.15c-.29,0-.57,0-.86,0H54.61c-.29,0-.57,0-.86,0a1.12,1.12,0,0,0-1.07.94,2,2,0,0,0,0,.34v1.72a1.47,1.47,0,0,0,.11.59,1.05,1.05,0,0,0,.91.68c.29,0,.58,0,.86,0H66.3c.26,0,.52,0,.77,0A1.19,1.19,0,0,1,68,67a1,1,0,0,1,.22.55c0,.2,0,.4,0,.6V74c0,.17,0,.35,0,.52a1.19,1.19,0,0,1-1.09,1.13H54a3,3,0,0,0-.51.06,1.07,1.07,0,0,0-.78.73,1.28,1.28,0,0,0-.07.34c0,.62,0,1.26,0,1.88a1.14,1.14,0,0,0,1.11,1.11,6.54,6.54,0,0,0,.77,0H68.29c.28,0,.57,0,.85,0a1.13,1.13,0,0,1,1,1,5.32,5.32,0,0,1,0,.69v5.75q0,.3,0,.6a1.2,1.2,0,0,1-1.11,1.12,1.93,1.93,0,0,1-.34,0H44.09a1.24,1.24,0,0,1-.84-.38,1.1,1.1,0,0,1-.33-.69c0-.31,0-.63,0-.94Z"/><path class="cls-1" d="M153.56,130.34a25.58,25.58,0,0,1-7.53-1.12,23.36,23.36,0,0,1-7.74-4.18l-.26-.23a1.23,1.23,0,0,1-.26-1.42,2.67,2.67,0,0,1,.31-.51c1.12-1.63,2.25-3.25,3.37-4.87.08-.12.17-.23.26-.35a1.37,1.37,0,0,1,.87-.49.85.85,0,0,1,.59.08,6.38,6.38,0,0,1,.67.38,28.63,28.63,0,0,0,4.59,2.32,16.23,16.23,0,0,0,3,.85,12.16,12.16,0,0,0,3.76.08,5.11,5.11,0,0,0,1.32-.38,2.91,2.91,0,0,0,.78-.53,1.87,1.87,0,0,0,.48-1.74,1,1,0,0,0-.38-.56,2.91,2.91,0,0,0-.82-.47,6.65,6.65,0,0,0-1.32-.38c-.5-.09-1-.16-1.52-.26-1.35-.24-2.7-.51-4-.75a21.65,21.65,0,0,1-3.88-1.07,18.22,18.22,0,0,1-2.57-1.2,9.63,9.63,0,0,1-4.25-4.68,9.83,9.83,0,0,1-.67-2.57,13.74,13.74,0,0,1,.22-4.52,8.82,8.82,0,0,1,1.21-2.92,10.63,10.63,0,0,1,3.77-3.56,14,14,0,0,1,4.1-1.49,24.64,24.64,0,0,1,7.27-.35,19.45,19.45,0,0,1,7.2,2.13,25.07,25.07,0,0,1,3.42,2.13l.41.32a1.27,1.27,0,0,1,.25,1.7l-.19.29-3.46,4.92a3.12,3.12,0,0,1-.32.4,1.21,1.21,0,0,1-1.49.25c-.18-.09-.34-.2-.52-.31a22.11,22.11,0,0,0-2.82-1.46,15.92,15.92,0,0,0-3.7-1,10.14,10.14,0,0,0-1.46-.11c-.63,0-1.26,0-1.89,0a4.29,4.29,0,0,0-1,.19,2.29,2.29,0,0,0-.76.39,1.34,1.34,0,0,0-.5,1.38,1.09,1.09,0,0,0,.19.37,1.81,1.81,0,0,0,.66.54c.39.19.77.38,1.17.54a19.76,19.76,0,0,0,3.63,1l2.7.51a29.52,29.52,0,0,1,3.22.9,14,14,0,0,1,3.52,1.77,11.16,11.16,0,0,1,3.28,3.59,8.8,8.8,0,0,1,1,3.07,13.08,13.08,0,0,1,0,4.28,9.54,9.54,0,0,1-4.58,6.92,12.88,12.88,0,0,1-3.73,1.51,18.83,18.83,0,0,1-3.82.56Z"/><path class="cls-1" d="M12.84,71V55c0-.28,0-.57,0-.86a1.12,1.12,0,0,1,1-1.06,4,4,0,0,1,.77-.05H20c.4,0,.8,0,1.2,0a1.7,1.7,0,0,1,.67.13,1.09,1.09,0,0,1,.69.92,6.52,6.52,0,0,1,0,.77v23c0,.26,0,.52,0,.77a1.89,1.89,0,0,0,.14.58.93.93,0,0,0,.79.58c.29,0,.57,0,.86,0H37.61c.26,0,.52,0,.78,0a1.72,1.72,0,0,1,.5.11,1.09,1.09,0,0,1,.71.8,3.08,3.08,0,0,1,.07.68v5.93a2.91,2.91,0,0,1,0,.51,1.22,1.22,0,0,1-1.09,1H14.83c-.26,0-.52,0-.77,0a2,2,0,0,1-.5-.11,1.06,1.06,0,0,1-.7-.91,8,8,0,0,1,0-.85Z"/><path class="cls-1" d="M95,128.36c-.09-.27-.21-.53-.32-.79q-6.87-16-13.76-32c-.08-.18-.15-.37-.24-.55A1.84,1.84,0,0,0,79,93.88H72.18a1.82,1.82,0,0,0-1.7,1.1,7,7,0,0,0-.35.79l-12,27.94c-.57,1.34-1.15,2.68-1.72,4a5.31,5.31,0,0,0-.23.55,1,1,0,0,0,.59,1.26,2.24,2.24,0,0,0,.58.14,4.47,4.47,0,0,0,.52,0h7.82a1.86,1.86,0,0,0,1-.29,2,2,0,0,0,.74-.82l.84-1.79c.18-.39.35-.78.55-1.16a1.84,1.84,0,0,1,1.58-1c.2,0,.4,0,.6,0h9.62a2,2,0,0,1,1.32.55,2.29,2.29,0,0,1,.54.77c.3.68.6,1.36.91,2,.09.21.18.42.29.62a2.07,2.07,0,0,0,1.81,1.12h8.34a1.4,1.4,0,0,0,.66-.16A1,1,0,0,0,95,128.36Zm-20-19.5a1.64,1.64,0,0,1,.34-.6.32.32,0,0,1,.39,0,.75.75,0,0,1,.15.2,4,4,0,0,1,.21.47q1.1,2.61,2.17,5.22c.07.16.13.32.19.48a.6.6,0,0,1-.38.76,1.69,1.69,0,0,1-.59.09H73.64a3,3,0,0,1-.51-.06.6.6,0,0,1-.47-.78c0-.16.11-.32.17-.48"/></g></g></svg>